Rubik-Bold.ufo
<glyph name="four" format="1">
  <advance width="703"/>
  <unicode hex="0034"/>
  <outline>
    <contour>
      <point x="531" y="0" type="line" name="hr00" smooth="yes"/>
      <point x="546" y="0"/>
      <point x="558" y="12"/>
      <point x="558" y="27" type="curve" smooth="yes"/>
      <point x="558" y="129" type="line"/>
      <point x="644" y="129" type="line" smooth="yes"/>
      <point x="659" y="129"/>
      <point x="671" y="141"/>
      <point x="671" y="156" type="curve" smooth="yes"/>
      <point x="671" y="262" type="line" smooth="yes"/>
      <point x="671" y="277"/>
      <point x="659" y="289"/>
      <point x="644" y="289" type="curve" smooth="yes"/>
      <point x="558" y="289" type="line"/>
      <point x="558" y="673" type="line" smooth="yes"/>
      <point x="558" y="688"/>
      <point x="546" y="700"/>
      <point x="531" y="700" type="curve" smooth="yes"/>
      <point x="380" y="700" type="line" smooth="yes"/>
      <point x="363" y="700"/>
      <point x="355" y="697"/>
      <point x="343" y="682" type="curve" smooth="yes"/>
      <point x="44" y="305" type="line" smooth="yes"/>
      <point x="35" y="293"/>
      <point x="31" y="280"/>
      <point x="31" y="262" type="curve" smooth="yes"/>
      <point x="31" y="156" type="line" smooth="yes"/>
      <point x="31" y="141"/>
      <point x="43" y="129"/>
      <point x="58" y="129" type="curve" smooth="yes"/>
      <point x="373" y="129" type="line"/>
      <point x="373" y="27" type="line" smooth="yes"/>
      <point x="373" y="12"/>
      <point x="385" y="0"/>
      <point x="400" y="0" type="curve" smooth="yes"/>
    </contour>
    <contour>
      <point x="232" y="289" type="line"/>
      <point x="378" y="473" type="line"/>
      <point x="378" y="289" type="line"/>
    </contour>
  </outline>
</glyph>
<glyph name="greater" format="1">
  <advance width="523"/>
  <unicode hex="003E"/>
  <outline>
    <contour>
      <point x="496" y="371" type="line" name="hr00" smooth="yes"/>
      <point x="496" y="392"/>
      <point x="485" y="401"/>
      <point x="467" y="413" type="curve" smooth="yes"/>
      <point x="92" y="667" type="line" smooth="yes"/>
      <point x="87" y="670"/>
      <point x="83" y="670"/>
      <point x="81" y="670" type="curve" smooth="yes"/>
      <point x="69" y="670"/>
      <point x="60" y="661"/>
      <point x="60" y="649" type="curve" smooth="yes"/>
      <point x="60" y="512" type="line" smooth="yes"/>
      <point x="60" y="489"/>
      <point x="79" y="477"/>
      <point x="92" y="468" type="curve" smooth="yes"/>
      <point x="268" y="350" type="line"/>
      <point x="92" y="232" type="line" smooth="yes"/>
      <point x="79" y="223"/>
      <point x="60" y="211"/>
      <point x="60" y="188" type="curve" smooth="yes"/>
      <point x="60" y="51" type="line" smooth="yes"/>
      <point x="60" y="39"/>
      <point x="69" y="30"/>
      <point x="81" y="30" type="curve" smooth="yes"/>
      <point x="83" y="30"/>
      <point x="87" y="30"/>
      <point x="92" y="33" type="curve" smooth="yes"/>
      <point x="467" y="287" type="line" smooth="yes"/>
      <point x="485" y="299"/>
      <point x="496" y="308"/>
      <point x="496" y="329" type="curve" smooth="yes"/>
    </contour>
  </outline>
</glyph>
<glyph name="F" format="1">
  <advance width="617"/>
  <unicode hex="0046"/>
  <outline>
    <contour>
      <point x="97" y="700" type="line" name="hr00" smooth="yes"/>
      <point x="82" y="700"/>
      <point x="70" y="688"/>
      <point x="70" y="673" type="curve" smooth="yes"/>
      <point x="70" y="27" type="line" smooth="yes"/>
      <point x="70" y="12"/>
      <point x="82" y="0"/>
      <point x="97" y="0" type="curve" smooth="yes"/>
      <point x="228" y="0" type="line" smooth="yes"/>
      <point x="243" y="0"/>
      <point x="255" y="12"/>
      <point x="255" y="27" type="curve" smooth="yes"/>
      <point x="255" y="243" type="line"/>
      <point x="534" y="243" type="line" smooth="yes"/>
      <point x="549" y="243"/>
      <point x="561" y="255"/>
      <point x="561" y="270" type="curve" smooth="yes"/>
      <point x="561" y="376" type="line" smooth="yes"/>
      <point x="561" y="391"/>
      <point x="549" y="403"/>
      <point x="534" y="403" type="curve" smooth="yes"/>
      <point x="255" y="403" type="line"/>
      <point x="255" y="540" type="line"/>
      <point x="554" y="540" type="line" smooth="yes"/>
      <point x="569" y="540"/>
      <point x="581" y="552"/>
      <point x="581" y="567" type="curve" smooth="yes"/>
      <point x="581" y="673" type="line" smooth="yes"/>
      <point x="581" y="688"/>
      <point x="569" y="700"/>
      <point x="554" y="700" type="curve" smooth="yes"/>
    </contour>
  </outline>
</glyph>
<glyph name="K" format="1">
  <advance width="673"/>
  <unicode hex="004B"/>
  <outline>
    <contour>
      <point x="399" y="365" type="line" name="hr00"/>
      <point x="646" y="667" type="line" smooth="yes"/>
      <point x="648" y="670"/>
      <point x="649" y="674"/>
      <point x="649" y="678" type="curve" smooth="yes"/>
      <point x="649" y="690"/>
      <point x="639" y="700"/>
      <point x="627" y="700" type="curve" smooth="yes"/>
      <point x="471" y="700" type="line" smooth="yes"/>
      <point x="446" y="700"/>
      <point x="437" y="686"/>
      <point x="431" y="678" type="curve" smooth="yes"/>
      <point x="255" y="462" type="line"/>
      <point x="255" y="673" type="line" smooth="yes"/>
      <point x="255" y="688"/>
      <point x="243" y="700"/>
      <point x="228" y="700" type="curve" smooth="yes"/>
      <point x="97" y="700" type="line" smooth="yes"/>
      <point x="82" y="700"/>
      <point x="70" y="688"/>
      <point x="70" y="673" type="curve" smooth="yes"/>
      <point x="70" y="27" type="line" smooth="yes"/>
      <point x="70" y="12"/>
      <point x="82" y="0"/>
      <point x="97" y="0" type="curve" smooth="yes"/>
      <point x="228" y="0" type="line" smooth="yes"/>
      <point x="243" y="0"/>
      <point x="255" y="12"/>
      <point x="255" y="27" type="curve" smooth="yes"/>
      <point x="255" y="261" type="line"/>
      <point x="444" y="23" type="line" smooth="yes"/>
      <point x="456" y="8"/>
      <point x="467" y="0"/>
      <point x="485" y="0" type="curve" smooth="yes"/>
      <point x="644" y="0" type="line" smooth="yes"/>
      <point x="656" y="0"/>
      <point x="666" y="10"/>
      <point x="666" y="22" type="curve" smooth="yes"/>
      <point x="666" y="25"/>
      <point x="666" y="29"/>
      <point x="663" y="33" type="curve" smooth="yes"/>
    </contour>
  </outline>
</glyph>
<glyph name="L" format="1">
  <advance width="603"/>
  <unicode hex="004C"/>
  <outline>
    <contour>
      <point x="255" y="160" type="line" name="hr00"/>
      <point x="255" y="673" type="line" smooth="yes"/>
      <point x="255" y="688"/>
      <point x="243" y="700"/>
      <point x="228" y="700" type="curve" smooth="yes"/>
      <point x="97" y="700" type="line" smooth="yes"/>
      <point x="82" y="700"/>
      <point x="70" y="688"/>
      <point x="70" y="673" type="curve" smooth="yes"/>
      <point x="70" y="27" type="line" smooth="yes"/>
      <point x="70" y="12"/>
      <point x="82" y="0"/>
      <point x="97" y="0" type="curve" smooth="yes"/>
      <point x="560" y="0" type="line" smooth="yes"/>
      <point x="575" y="0"/>
      <point x="587" y="12"/>
      <point x="587" y="27" type="curve" smooth="yes"/>
      <point x="587" y="133" type="line" smooth="yes"/>
      <point x="587" y="148"/>
      <point x="575" y="160"/>
      <point x="560" y="160" type="curve" smooth="yes"/>
    </contour>
  </outline>
</glyph>
<glyph name="Q" format="1">
  <advance width="718"/>
  <unicode hex="0051"/>
  <outline>
    <contour>
      <point x="47" y="439" type="curve" smooth="yes"/>
      <point x="44" y="382"/>
      <point x="44" y="315"/>
      <point x="47" y="261" type="curve" smooth="yes"/>
      <point x="55" y="111"/>
      <point x="163" y="-10"/>
      <point x="359" y="-10" type="curve" smooth="yes"/>
      <point x="391" y="-10"/>
      <point x="420" y="-6"/>
      <point x="448" y="0" type="curve"/>
      <point x="476" y="-42" type="line" smooth="yes"/>
      <point x="482" y="-50"/>
      <point x="493" y="-65"/>
      <point x="518" y="-65" type="curve" name="hr01" smooth="yes"/>
      <point x="659" y="-65" type="line" smooth="yes"/>
      <point x="671" y="-65"/>
      <point x="681" y="-55"/>
      <point x="679" y="-43" type="curve" smooth="yes"/>
      <point x="679" y="-40"/>
      <point x="677" y="-36"/>
      <point x="676" y="-34" type="curve" smooth="yes"/>
      <point x="597" y="80" type="line"/>
      <point x="642" y="128"/>
      <point x="667" y="191"/>
      <point x="671" y="261" type="curve" smooth="yes"/>
      <point x="674" y="315"/>
      <point x="674" y="382"/>
      <point x="671" y="439" type="curve" smooth="yes"/>
      <point x="663" y="589"/>
      <point x="555" y="710"/>
      <point x="359" y="710" type="curve" smooth="yes"/>
      <point x="163" y="710"/>
      <point x="55" y="589"/>
    </contour>
    <contour>
      <point x="486" y="266" type="curve" smooth="yes"/>
      <point x="480" y="200"/>
      <point x="442" y="150"/>
      <point x="359" y="150" type="curve" smooth="yes"/>
      <point x="276" y="150"/>
      <point x="238" y="200"/>
      <point x="232" y="266" type="curve" smooth="yes"/>
      <point x="228" y="313"/>
      <point x="228" y="389"/>
      <point x="232" y="434" type="curve" smooth="yes"/>
      <point x="238" y="500"/>
      <point x="276" y="550"/>
      <point x="359" y="550" type="curve" smooth="yes"/>
      <point x="442" y="550"/>
      <point x="480" y="500"/>
      <point x="486" y="434" type="curve" smooth="yes"/>
      <point x="490" y="389"/>
      <point x="490" y="313"/>
    </contour>
  </outline>
</glyph>
<glyph name="T" format="1">
  <advance width="631"/>
  <unicode hex="0054"/>
  <outline>
    <contour>
      <point x="47" y="700" type="line" name="hr00" smooth="yes"/>
      <point x="32" y="700"/>
      <point x="20" y="688"/>
      <point x="20" y="673" type="curve" smooth="yes"/>
      <point x="20" y="567" type="line" smooth="yes"/>
      <point x="20" y="552"/>
      <point x="32" y="540"/>
      <point x="47" y="540" type="curve" smooth="yes"/>
      <point x="223" y="540" type="line"/>
      <point x="223" y="27" type="line" smooth="yes"/>
      <point x="223" y="12"/>
      <point x="235" y="0"/>
      <point x="250" y="0" type="curve" smooth="yes"/>
      <point x="381" y="0" type="line" smooth="yes"/>
      <point x="396" y="0"/>
      <point x="408" y="12"/>
      <point x="408" y="27" type="curve" smooth="yes"/>
      <point x="408" y="540" type="line"/>
      <point x="584" y="540" type="line" smooth="yes"/>
      <point x="599" y="540"/>
      <point x="611" y="552"/>
      <point x="611" y="567" type="curve" smooth="yes"/>
      <point x="611" y="673" type="line" smooth="yes"/>
      <point x="611" y="688"/>
      <point x="599" y="700"/>
      <point x="584" y="700" type="curve" smooth="yes"/>
    </contour>
  </outline>
</glyph>
<glyph name="Y" format="1">
  <advance width="687"/>
  <unicode hex="0059"/>
  <outline>
    <contour>
      <point x="436" y="240" type="line" name="hr00"/>
      <point x="667" y="665" type="line" smooth="yes"/>
      <point x="670" y="670"/>
      <point x="671" y="675"/>
      <point x="671" y="678" type="curve" smooth="yes"/>
      <point x="671" y="690"/>
      <point x="661" y="700"/>
      <point x="649" y="700" type="curve" smooth="yes"/>
      <point x="512" y="700" type="line" smooth="yes"/>
      <point x="485" y="700"/>
      <point x="473" y="681"/>
      <point x="470" y="675" type="curve" smooth="yes"/>
      <point x="343" y="429" type="line"/>
      <point x="217" y="675" type="line" smooth="yes"/>
      <point x="214" y="681"/>
      <point x="202" y="700"/>
      <point x="175" y="700" type="curve" smooth="yes"/>
      <point x="38" y="700" type="line" smooth="yes"/>
      <point x="26" y="700"/>
      <point x="16" y="690"/>
      <point x="16" y="678" type="curve" smooth="yes"/>
      <point x="16" y="675"/>
      <point x="17" y="670"/>
      <point x="20" y="665" type="curve" smooth="yes"/>
      <point x="251" y="240" type="line"/>
      <point x="251" y="27" type="line" smooth="yes"/>
      <point x="251" y="12"/>
      <point x="263" y="0"/>
      <point x="278" y="0" type="curve" smooth="yes"/>
      <point x="409" y="0" type="line" smooth="yes"/>
      <point x="424" y="0"/>
      <point x="436" y="12"/>
      <point x="436" y="27" type="curve" smooth="yes"/>
    </contour>
  </outline>
</glyph>
<glyph name="bracketleft" format="1">
  <advance width="390"/>
  <unicode hex="005B"/>
  <outline>
    <contour>
      <point x="335" y="-159" type="line" name="hr00" smooth="yes"/>
      <point x="350" y="-159"/>
      <point x="362" y="-147"/>
      <point x="362" y="-132" type="curve" smooth="yes"/>
      <point x="362" y="-31" type="line" smooth="yes"/>
      <point x="362" y="-16"/>
      <point x="350" y="-4"/>
      <point x="335" y="-4" type="curve" smooth="yes"/>
      <point x="240" y="-4" type="line"/>
      <point x="240" y="621" type="line"/>
      <point x="335" y="621" type="line" smooth="yes"/>
      <point x="350" y="621"/>
      <point x="362" y="633"/>
      <point x="362" y="648" type="curve" smooth="yes"/>
      <point x="362" y="749" type="line" smooth="yes"/>
      <point x="362" y="764"/>
      <point x="350" y="776"/>
      <point x="335" y="776" type="curve" smooth="yes"/>
      <point x="87" y="776" type="line" smooth="yes"/>
      <point x="72" y="776"/>
      <point x="60" y="764"/>
      <point x="60" y="749" type="curve" smooth="yes"/>
      <point x="60" y="-132" type="line" smooth="yes"/>
      <point x="60" y="-147"/>
      <point x="72" y="-159"/>
      <point x="87" y="-159" type="curve" smooth="yes"/>
    </contour>
  </outline>
</glyph>
<glyph name="bracketright" format="1">
  <advance width="390"/>
  <unicode hex="005D"/>
  <outline>
    <contour>
      <point x="303" y="-159" type="line" name="hr00"/>
      <point x="318" y="-159"/>
      <point x="330" y="-147"/>
      <point x="330" y="-132" type="curve" smooth="yes"/>
      <point x="330" y="749" type="line" smooth="yes"/>
      <point x="330" y="764"/>
      <point x="318" y="776"/>
      <point x="303" y="776" type="curve" smooth="yes"/>
      <point x="55" y="776" type="line" smooth="yes"/>
      <point x="40" y="776"/>
      <point x="28" y="764"/>
      <point x="28" y="749" type="curve" smooth="yes"/>
      <point x="28" y="648" type="line" smooth="yes"/>
      <point x="28" y="633"/>
      <point x="40" y="621"/>
      <point x="55" y="621" type="curve" smooth="yes"/>
      <point x="150" y="621" type="line"/>
      <point x="150" y="-4" type="line"/>
      <point x="55" y="-4" type="line" smooth="yes"/>
      <point x="40" y="-4"/>
      <point x="28" y="-16"/>
      <point x="28" y="-31" type="curve" smooth="yes"/>
      <point x="28" y="-132" type="line" smooth="yes"/>
      <point x="28" y="-147"/>
      <point x="40" y="-159"/>
      <point x="55" y="-159" type="curve" smooth="yes"/>
    </contour>
  </outline>
</glyph>
<glyph name="asciicircum" format="1">
  <advance width="468"/>
  <unicode hex="005E"/>
  <outline>
    <contour>
      <point x="190" y="755" type="line" name="hr00" smooth="yes"/>
      <point x="175" y="755"/>
      <point x="166" y="750"/>
      <point x="153" y="736" type="curve" smooth="yes"/>
      <point x="51" y="624" type="line" smooth="yes"/>
      <point x="48" y="621"/>
      <point x="46" y="616"/>
      <point x="46" y="611" type="curve" smooth="yes"/>
      <point x="46" y="601"/>
      <point x="52" y="595"/>
      <point x="62" y="595" type="curve" smooth="yes"/>
      <point x="129" y="595" type="line" smooth="yes"/>
      <point x="142" y="595"/>
      <point x="148" y="599"/>
      <point x="160" y="606" type="curve" smooth="yes"/>
      <point x="234" y="649" type="line"/>
      <point x="308" y="606" type="line" smooth="yes"/>
      <point x="320" y="599"/>
      <point x="326" y="595"/>
      <point x="339" y="595" type="curve" smooth="yes"/>
      <point x="406" y="595" type="line" smooth="yes"/>
      <point x="416" y="595"/>
      <point x="422" y="601"/>
      <point x="422" y="611" type="curve" smooth="yes"/>
      <point x="422" y="616"/>
      <point x="420" y="621"/>
      <point x="417" y="624" type="curve" smooth="yes"/>
      <point x="315" y="736" type="line" smooth="yes"/>
      <point x="302" y="750"/>
      <point x="293" y="755"/>
      <point x="278" y="755" type="curve" smooth="yes"/>
    </contour>
  </outline>
</glyph>
<glyph name="underscore" format="1">
  <advance width="737"/>
  <unicode hex="005F"/>
  <outline>
    <contour>
      <point x="666" y="-77" type="line" name="hr00"/>
      <point x="681" y="-77"/>
      <point x="693" y="-65"/>
      <point x="693" y="-50" type="curve" smooth="yes"/>
      <point x="693" y="51" type="line" smooth="yes"/>
      <point x="693" y="66"/>
      <point x="681" y="78"/>
      <point x="666" y="78" type="curve" smooth="yes"/>
      <point x="71" y="78" type="line" smooth="yes"/>
      <point x="56" y="78"/>
      <point x="44" y="66"/>
      <point x="44" y="51" type="curve" smooth="yes"/>
      <point x="44" y="-50" type="line" smooth="yes"/>
      <point x="44" y="-65"/>
      <point x="56" y="-77"/>
      <point x="71" y="-77" type="curve" smooth="yes"/>
    </contour>
  </outline>
</glyph>
<glyph name="e" format="1">
  <advance width="607"/>
  <unicode hex="0065"/>
  <outline>
    <contour>
      <point x="547" y="203" type="line" smooth="yes"/>
      <point x="562" y="203"/>
      <point x="574" y="215"/>
      <point x="574" y="230" type="curve" smooth="yes"/>
      <point x="574" y="258" type="line" smooth="yes"/>
      <point x="574" y="385"/>
      <point x="500" y="530"/>
      <point x="304" y="530" type="curve" smooth="yes"/>
      <point x="130" y="530"/>
      <point x="34" y="416"/>
      <point x="34" y="260" type="curve" smooth="yes"/>
      <point x="34" y="93"/>
      <point x="130" y="-10"/>
      <point x="304" y="-10" type="curve" smooth="yes"/>
      <point x="489" y="-10"/>
      <point x="566" y="109"/>
      <point x="566" y="140" type="curve" smooth="yes"/>
      <point x="566" y="153"/>
      <point x="557" y="162"/>
      <point x="544" y="162" type="curve" smooth="yes"/>
      <point x="414" y="162" type="line" smooth="yes"/>
      <point x="398" y="162"/>
      <point x="395" y="160"/>
      <point x="381" y="148" type="curve" smooth="yes"/>
      <point x="365" y="134"/>
      <point x="344" y="125"/>
      <point x="304" y="125" type="curve" name="hr01" smooth="yes"/>
      <point x="264" y="125"/>
      <point x="214" y="142"/>
      <point x="214" y="203" type="curve"/>
    </contour>
    <contour>
      <point x="304" y="395" type="curve" smooth="yes"/>
      <point x="359" y="395"/>
      <point x="389" y="355"/>
      <point x="394" y="314" type="curve"/>
      <point x="214" y="314" type="line"/>
      <point x="219" y="355"/>
      <point x="249" y="395"/>
    </contour>
  </outline>
</glyph>
<glyph name="m" format="1">
  <advance width="931"/>
  <unicode hex="006D"/>
  <outline>
    <contour>
      <point x="878" y="302" type="line" smooth="yes"/>
      <point x="878" y="459"/>
      <point x="796" y="530"/>
      <point x="680" y="530" type="curve" smooth="yes"/>
      <point x="617" y="530"/>
      <point x="559" y="503"/>
      <point x="520" y="452" type="curve"/>
      <point x="485" y="505"/>
      <point x="428" y="530"/>
      <point x="360" y="530" type="curve" smooth="yes"/>
      <point x="304" y="530"/>
      <point x="262" y="507"/>
      <point x="233" y="470" type="curve"/>
      <point x="233" y="493" type="line" smooth="yes"/>
      <point x="233" y="508"/>
      <point x="221" y="520"/>
      <point x="206" y="520" type="curve" name="hr01" smooth="yes"/>
      <point x="85" y="520" type="line" smooth="yes"/>
      <point x="70" y="520"/>
      <point x="58" y="508"/>
      <point x="58" y="493" type="curve" smooth="yes"/>
      <point x="58" y="27" type="line" smooth="yes"/>
      <point x="58" y="12"/>
      <point x="70" y="0"/>
      <point x="85" y="0" type="curve" smooth="yes"/>
      <point x="211" y="0" type="line" smooth="yes"/>
      <point x="226" y="0"/>
      <point x="238" y="12"/>
      <point x="238" y="27" type="curve" smooth="yes"/>
      <point x="238" y="286" type="line" smooth="yes"/>
      <point x="238" y="349"/>
      <point x="264" y="375"/>
      <point x="310" y="375" type="curve" name="hr02" smooth="yes"/>
      <point x="358" y="375"/>
      <point x="383" y="349"/>
      <point x="383" y="283" type="curve" smooth="yes"/>
      <point x="383" y="27" type="line" smooth="yes"/>
      <point x="383" y="12"/>
      <point x="395" y="0"/>
      <point x="410" y="0" type="curve" smooth="yes"/>
      <point x="531" y="0" type="line" smooth="yes"/>
      <point x="546" y="0"/>
      <point x="558" y="12"/>
      <point x="558" y="27" type="curve" smooth="yes"/>
      <point x="558" y="283" type="line" smooth="yes"/>
      <point x="558" y="349"/>
      <point x="584" y="375"/>
      <point x="630" y="375" type="curve" smooth="yes"/>
      <point x="678" y="375"/>
      <point x="703" y="349"/>
      <point x="703" y="283" type="curve" smooth="yes"/>
      <point x="703" y="27" type="line" smooth="yes"/>
      <point x="703" y="12"/>
      <point x="715" y="0"/>
      <point x="730" y="0" type="curve" smooth="yes"/>
      <point x="851" y="0" type="line" smooth="yes"/>
      <point x="866" y="0"/>
      <point x="878" y="12"/>
      <point x="878" y="27" type="curve" smooth="yes"/>
    </contour>
  </outline>
</glyph>
<glyph name="n" format="1">
  <advance width="644"/>
  <unicode hex="006E"/>
  <outline>
    <contour>
      <point x="591" y="302" type="line" smooth="yes"/>
      <point x="591" y="459"/>
      <point x="503" y="530"/>
      <point x="374" y="530" type="curve" smooth="yes"/>
      <point x="294" y="530"/>
      <point x="255" y="498"/>
      <point x="233" y="470" type="curve"/>
      <point x="233" y="493" type="line" smooth="yes"/>
      <point x="233" y="508"/>
      <point x="221" y="520"/>
      <point x="206" y="520" type="curve" name="hr01" smooth="yes"/>
      <point x="85" y="520" type="line" smooth="yes"/>
      <point x="70" y="520"/>
      <point x="58" y="508"/>
      <point x="58" y="493" type="curve" smooth="yes"/>
      <point x="58" y="27" type="line" smooth="yes"/>
      <point x="58" y="12"/>
      <point x="70" y="0"/>
      <point x="85" y="0" type="curve" smooth="yes"/>
      <point x="211" y="0" type="line" smooth="yes"/>
      <point x="226" y="0"/>
      <point x="238" y="12"/>
      <point x="238" y="27" type="curve" smooth="yes"/>
      <point x="238" y="280" type="line" smooth="yes"/>
      <point x="238" y="337"/>
      <point x="264" y="375"/>
      <point x="324" y="375" type="curve" name="hr02" smooth="yes"/>
      <point x="384" y="375"/>
      <point x="411" y="337"/>
      <point x="411" y="280" type="curve" smooth="yes"/>
      <point x="411" y="27" type="line" smooth="yes"/>
      <point x="411" y="12"/>
      <point x="423" y="0"/>
      <point x="438" y="0" type="curve" smooth="yes"/>
      <point x="564" y="0" type="line" smooth="yes"/>
      <point x="579" y="0"/>
      <point x="591" y="12"/>
      <point x="591" y="27" type="curve" smooth="yes"/>
    </contour>
  </outline>
</glyph>
<glyph name="q" format="1">
  <advance width="634"/>
  <unicode hex="0071"/>
  <outline>
    <contour>
      <point x="262" y="-10" type="curve" smooth="yes"/>
      <point x="339" y="-10"/>
      <point x="378" y="25"/>
      <point x="396" y="50" type="curve"/>
      <point x="396" y="-163" type="line" smooth="yes"/>
      <point x="396" y="-178"/>
      <point x="408" y="-190"/>
      <point x="423" y="-190" type="curve" smooth="yes"/>
      <point x="549" y="-190" type="line" smooth="yes"/>
      <point x="564" y="-190"/>
      <point x="576" y="-178"/>
      <point x="576" y="-163" type="curve" smooth="yes"/>
      <point x="576" y="493" type="line" smooth="yes"/>
      <point x="576" y="508"/>
      <point x="564" y="520"/>
      <point x="549" y="520" type="curve" smooth="yes"/>
      <point x="428" y="520" type="line" smooth="yes"/>
      <point x="413" y="520"/>
      <point x="401" y="508"/>
      <point x="401" y="493" type="curve" smooth="yes"/>
      <point x="401" y="470" type="line"/>
      <point x="377" y="498"/>
      <point x="350" y="530"/>
      <point x="262" y="530" type="curve" name="hr01" smooth="yes"/>
      <point x="142" y="530"/>
      <point x="44" y="458"/>
      <point x="38" y="301" type="curve" smooth="yes"/>
      <point x="37" y="281"/>
      <point x="37" y="240"/>
      <point x="38" y="220" type="curve" smooth="yes"/>
      <point x="44" y="63"/>
      <point x="141" y="-10"/>
    </contour>
    <contour>
      <point x="217" y="232" type="curve" smooth="yes"/>
      <point x="215" y="252"/>
      <point x="215" y="268"/>
      <point x="217" y="288" type="curve" smooth="yes"/>
      <point x="221" y="335"/>
      <point x="245" y="375"/>
      <point x="307" y="375" type="curve" smooth="yes"/>
      <point x="366" y="375"/>
      <point x="390" y="334"/>
      <point x="396" y="295" type="curve" smooth="yes"/>
      <point x="399" y="275"/>
      <point x="399" y="245"/>
      <point x="396" y="225" type="curve" smooth="yes"/>
      <point x="391" y="186"/>
      <point x="366" y="145"/>
      <point x="307" y="145" type="curve" smooth="yes"/>
      <point x="245" y="145"/>
      <point x="221" y="185"/>
    </contour>
  </outline>
</glyph>
<glyph name="u" format="1">
  <advance width="634"/>
  <unicode hex="0075"/>
  <outline>
    <contour>
      <point x="53" y="218" type="line" smooth="yes"/>
      <point x="53" y="61"/>
      <point x="136" y="-10"/>
      <point x="265" y="-10" type="curve" smooth="yes"/>
      <point x="347" y="-10"/>
      <point x="384" y="22"/>
      <point x="406" y="50" type="curve"/>
      <point x="406" y="27" type="line" smooth="yes"/>
      <point x="406" y="12"/>
      <point x="418" y="0"/>
      <point x="433" y="0" type="curve" name="hr01" smooth="yes"/>
      <point x="549" y="0" type="line" smooth="yes"/>
      <point x="564" y="0"/>
      <point x="576" y="12"/>
      <point x="576" y="27" type="curve" smooth="yes"/>
      <point x="576" y="493" type="line" smooth="yes"/>
      <point x="576" y="508"/>
      <point x="564" y="520"/>
      <point x="549" y="520" type="curve" smooth="yes"/>
      <point x="423" y="520" type="line" smooth="yes"/>
      <point x="408" y="520"/>
      <point x="396" y="508"/>
      <point x="396" y="493" type="curve" smooth="yes"/>
      <point x="396" y="240" type="line" smooth="yes"/>
      <point x="396" y="183"/>
      <point x="373" y="145"/>
      <point x="315" y="145" type="curve" name="hr02" smooth="yes"/>
      <point x="257" y="145"/>
      <point x="233" y="183"/>
      <point x="233" y="240" type="curve" smooth="yes"/>
      <point x="233" y="493" type="line" smooth="yes"/>
      <point x="233" y="508"/>
      <point x="221" y="520"/>
      <point x="206" y="520" type="curve" smooth="yes"/>
      <point x="80" y="520" type="line" smooth="yes"/>
      <point x="65" y="520"/>
      <point x="53" y="508"/>
      <point x="53" y="493" type="curve" smooth="yes"/>
    </contour>
  </outline>
</glyph>
<glyph name="braceright" format="1">
  <advance width="451"/>
  <unicode hex="007D"/>
  <outline>
    <contour>
      <point x="27" y="-133" type="line" name="hr00"/>
      <point x="27" y="-148"/>
      <point x="39" y="-160"/>
      <point x="54" y="-160" type="curve" smooth="yes"/>
      <point x="228" y="-160"/>
      <point x="349" y="-41"/>
      <point x="349" y="119" type="curve" smooth="yes"/>
      <point x="349" y="162"/>
      <point x="363" y="214"/>
      <point x="402" y="230" type="curve" smooth="yes"/>
      <point x="419" y="237" type="line" smooth="yes"/>
      <point x="439" y="246"/>
      <point x="448" y="258"/>
      <point x="448" y="274" type="curve" smooth="yes"/>
      <point x="448" y="342" type="line" smooth="yes"/>
      <point x="448" y="358"/>
      <point x="439" y="370"/>
      <point x="419" y="379" type="curve" smooth="yes"/>
      <point x="402" y="386" type="line" smooth="yes"/>
      <point x="363" y="402"/>
      <point x="349" y="454"/>
      <point x="349" y="497" type="curve" smooth="yes"/>
      <point x="349" y="657"/>
      <point x="228" y="776"/>
      <point x="54" y="776" type="curve" smooth="yes"/>
      <point x="39" y="776"/>
      <point x="27" y="764"/>
      <point x="27" y="749" type="curve" smooth="yes"/>
      <point x="27" y="648" type="line" smooth="yes"/>
      <point x="27" y="633"/>
      <point x="39" y="621"/>
      <point x="54" y="621" type="curve"/>
      <point x="127" y="614"/>
      <point x="169" y="586"/>
      <point x="169" y="486" type="curve" smooth="yes"/>
      <point x="169" y="379"/>
      <point x="220" y="332"/>
      <point x="256" y="308" type="curve"/>
      <point x="220" y="284"/>
      <point x="169" y="237"/>
      <point x="169" y="130" type="curve" smooth="yes"/>
      <point x="169" y="30"/>
      <point x="127" y="2"/>
      <point x="54" y="-5" type="curve"/>
      <point x="39" y="-5"/>
      <point x="27" y="-17"/>
      <point x="27" y="-32" type="curve" smooth="yes"/>
    </contour>
  </outline>
</glyph>
<glyph name="yen" format="1">
  <advance width="706"/>
  <unicode hex="00A5"/>
  <outline>
    <contour>
      <point x="120" y="293" type="line" name="hr00" smooth="yes"/>
      <point x="105" y="293"/>
      <point x="93" y="281"/>
      <point x="93" y="266" type="curve" smooth="yes"/>
      <point x="93" y="170" type="line" smooth="yes"/>
      <point x="93" y="155"/>
      <point x="105" y="143"/>
      <point x="120" y="143" type="curve" smooth="yes"/>
      <point x="262" y="143" type="line"/>
      <point x="262" y="27" type="line" smooth="yes"/>
      <point x="262" y="12"/>
      <point x="274" y="0"/>
      <point x="289" y="0" type="curve" smooth="yes"/>
      <point x="417" y="0" type="line" smooth="yes"/>
      <point x="432" y="0"/>
      <point x="444" y="12"/>
      <point x="444" y="27" type="curve" smooth="yes"/>
      <point x="444" y="143" type="line"/>
      <point x="585" y="143" type="line" smooth="yes"/>
      <point x="600" y="143"/>
      <point x="612" y="155"/>
      <point x="612" y="170" type="curve" smooth="yes"/>
      <point x="612" y="266" type="line" smooth="yes"/>
      <point x="612" y="281"/>
      <point x="600" y="293"/>
      <point x="585" y="293" type="curve" smooth="yes"/>
      <point x="465" y="293" type="line"/>
      <point x="676" y="665" type="line" smooth="yes"/>
      <point x="679" y="670"/>
      <point x="680" y="675"/>
      <point x="680" y="678" type="curve" smooth="yes"/>
      <point x="680" y="690"/>
      <point x="670" y="700"/>
      <point x="658" y="700" type="curve" smooth="yes"/>
      <point x="521" y="700" type="line" smooth="yes"/>
      <point x="494" y="700"/>
      <point x="482" y="681"/>
      <point x="479" y="675" type="curve" smooth="yes"/>
      <point x="353" y="447" type="line"/>
      <point x="227" y="675" type="line" smooth="yes"/>
      <point x="224" y="681"/>
      <point x="212" y="700"/>
      <point x="185" y="700" type="curve" smooth="yes"/>
      <point x="48" y="700" type="line" smooth="yes"/>
      <point x="36" y="700"/>
      <point x="26" y="690"/>
      <point x="26" y="678" type="curve" smooth="yes"/>
      <point x="26" y="675"/>
      <point x="27" y="670"/>
      <point x="30" y="665" type="curve" smooth="yes"/>
      <point x="240" y="293" type="line"/>
    </contour>
  </outline>
</glyph>
<glyph name="section" format="1">
  <advance width="618"/>
  <unicode hex="00A7"/>
  <outline>
    <contour>
      <point x="587" y="265" type="curve" smooth="yes"/>
      <point x="587" y="337"/>
      <point x="535" y="414"/>
      <point x="417" y="450" type="curve" smooth="yes"/>
      <point x="300" y="486"/>
      <point x="265" y="501"/>
      <point x="265" y="533" type="curve" smooth="yes"/>
      <point x="265" y="557"/>
      <point x="289" y="575"/>
      <point x="316" y="575" type="curve" smooth="yes"/>
      <point x="381" y="575"/>
      <point x="382" y="535"/>
      <point x="411" y="535" type="curve" name="hr01"/>
      <point x="535" y="535" type="line"/>
      <point x="547" y="535"/>
      <point x="558" y="547"/>
      <point x="557" y="562" type="curve" smooth="yes"/>
      <point x="554" y="616"/>
      <point x="486" y="710"/>
      <point x="316" y="710" type="curve" smooth="yes"/>
      <point x="165" y="710"/>
      <point x="85" y="625"/>
      <point x="85" y="529" type="curve" smooth="yes"/>
      <point x="85" y="498"/>
      <point x="93" y="471"/>
      <point x="107" y="449" type="curve"/>
      <point x="56" y="413"/>
      <point x="31" y="371"/>
      <point x="31" y="305" type="curve" name="hr02" smooth="yes"/>
      <point x="31" y="233"/>
      <point x="83" y="156"/>
      <point x="201" y="120" type="curve" smooth="yes"/>
      <point x="318" y="84"/>
      <point x="353" y="69"/>
      <point x="353" y="37" type="curve" smooth="yes"/>
      <point x="353" y="13"/>
      <point x="329" y="-5"/>
      <point x="302" y="-5" type="curve" smooth="yes"/>
      <point x="237" y="-5"/>
      <point x="236" y="35"/>
      <point x="207" y="35" type="curve" name="hr03"/>
      <point x="83" y="35" type="line"/>
      <point x="71" y="35"/>
      <point x="60" y="23"/>
      <point x="61" y="8" type="curve" smooth="yes"/>
      <point x="64" y="-46"/>
      <point x="132" y="-140"/>
      <point x="302" y="-140" type="curve" smooth="yes"/>
      <point x="453" y="-140"/>
      <point x="533" y="-55"/>
      <point x="533" y="41" type="curve" smooth="yes"/>
      <point x="533" y="72"/>
      <point x="524" y="98"/>
      <point x="510" y="121" type="curve"/>
      <point x="561" y="156"/>
      <point x="587" y="199"/>
    </contour>
    <contour>
      <point x="207" y="311" type="curve" smooth="yes"/>
      <point x="207" y="328"/>
      <point x="220" y="341"/>
      <point x="239" y="353" type="curve"/>
      <point x="258" y="345"/>
      <point x="277" y="339"/>
      <point x="295" y="334" type="curve" smooth="yes"/>
      <point x="389" y="306"/>
      <point x="411" y="288"/>
      <point x="411" y="259" type="curve" smooth="yes"/>
      <point x="411" y="242"/>
      <point x="398" y="228"/>
      <point x="379" y="217" type="curve"/>
      <point x="360" y="224"/>
      <point x="341" y="230"/>
      <point x="323" y="236" type="curve" smooth="yes"/>
      <point x="229" y="264"/>
      <point x="207" y="282"/>
    </contour>
  </outline>
</glyph>
<glyph name="ordfeminine" format="1">
  <advance width="356"/>
  <unicode hex="00AA"/>
  <outline>
    <contour>
      <point x="158" y="499" type="curve" smooth="yes"/>
      <point x="142" y="499"/>
      <point x="136" y="506"/>
      <point x="136" y="514" type="curve" smooth="yes"/>
      <point x="136" y="527"/>
      <point x="144" y="536"/>
      <point x="177" y="543" type="curve" smooth="yes"/>
      <point x="204" y="549" type="line"/>
      <point x="204" y="543" type="line" smooth="yes"/>
      <point x="204" y="524"/>
      <point x="190" y="499"/>
    </contour>
    <contour>
      <point x="231" y="434" type="curve"/>
      <point x="285" y="434" type="line" smooth="yes"/>
      <point x="298" y="434"/>
      <point x="307" y="443"/>
      <point x="307" y="456" type="curve" smooth="yes"/>
      <point x="307" y="597" type="line" smooth="yes"/>
      <point x="307" y="661"/>
      <point x="270" y="705"/>
      <point x="178" y="705" type="curve" smooth="yes"/>
      <point x="91" y="705"/>
      <point x="58" y="656"/>
      <point x="56" y="636" type="curve" smooth="yes"/>
      <point x="55" y="623"/>
      <point x="65" y="619"/>
      <point x="78" y="619" type="curve" smooth="yes"/>
      <point x="131" y="619" type="line" smooth="yes"/>
      <point x="153" y="619"/>
      <point x="156" y="635"/>
      <point x="177" y="635" type="curve" name="hr01" smooth="yes"/>
      <point x="202" y="635"/>
      <point x="204" y="619"/>
      <point x="204" y="609" type="curve"/>
      <point x="161" y="602" type="line" smooth="yes"/>
      <point x="84" y="589"/>
      <point x="33" y="562"/>
      <point x="33" y="509" type="curve" smooth="yes"/>
      <point x="33" y="460"/>
      <point x="80" y="429"/>
      <point x="138" y="429" type="curve" smooth="yes"/>
      <point x="174" y="429"/>
      <point x="198" y="444"/>
      <point x="209" y="463" type="curve"/>
      <point x="209" y="456" type="line" smooth="yes"/>
      <point x="209" y="443"/>
      <point x="218" y="434"/>
    </contour>
  </outline>
</glyph>
<glyph name="logicalnot" format="1">
  <advance width="577"/>
  <unicode hex="00AC"/>
  <outline>
    <contour>
      <point x="513" y="323" type="line" name="hr00" smooth="yes"/>
      <point x="513" y="338"/>
      <point x="501" y="350"/>
      <point x="486" y="350" type="curve" smooth="yes"/>
      <point x="81" y="350" type="line" smooth="yes"/>
      <point x="66" y="350"/>
      <point x="54" y="338"/>
      <point x="54" y="323" type="curve" smooth="yes"/>
      <point x="54" y="222" type="line" smooth="yes"/>
      <point x="54" y="207"/>
      <point x="66" y="195"/>
      <point x="81" y="195" type="curve" smooth="yes"/>
      <point x="333" y="195" type="line"/>
      <point x="333" y="100" type="line" smooth="yes"/>
      <point x="333" y="85"/>
      <point x="345" y="73"/>
      <point x="360" y="73" type="curve" smooth="yes"/>
      <point x="486" y="73" type="line" smooth="yes"/>
      <point x="501" y="73"/>
      <point x="513" y="85"/>
      <point x="513" y="100" type="curve" smooth="yes"/>
    </contour>
  </outline>
</glyph>
<glyph name="macron" format="1">
  <advance width="453"/>
  <unicode hex="00AF"/>
  <outline>
    <contour>
      <point x="371" y="595" type="line" name="hr00" smooth="yes"/>
      <point x="386" y="595"/>
      <point x="398" y="607"/>
      <point x="398" y="622" type="curve" smooth="yes"/>
      <point x="398" y="708" type="line" smooth="yes"/>
      <point x="398" y="723"/>
      <point x="386" y="735"/>
      <point x="371" y="735" type="curve" smooth="yes"/>
      <point x="82" y="735" type="line" smooth="yes"/>
      <point x="67" y="735"/>
      <point x="55" y="723"/>
      <point x="55" y="708" type="curve" smooth="yes"/>
      <point x="55" y="622" type="line" smooth="yes"/>
      <point x="55" y="607"/>
      <point x="67" y="595"/>
      <point x="82" y="595" type="curve" smooth="yes"/>
    </contour>
  </outline>
</glyph>
<glyph name="mu" format="1">
  <advance width="656"/>
  <unicode hex="00B5"/>
  <outline>
    <contour>
      <point x="62" y="218" type="line"/>
      <point x="62" y="206" type="line"/>
      <point x="62" y="-173" type="line"/>
      <point x="62" y="-188"/>
      <point x="74" y="-200"/>
      <point x="89" y="-200" type="curve"/>
      <point x="215" y="-200" type="line"/>
      <point x="230" y="-200"/>
      <point x="242" y="-188"/>
      <point x="242" y="-173" type="curve"/>
      <point x="242" y="-8" type="line"/>
      <point x="254" y="-9"/>
      <point x="266" y="-10"/>
      <point x="279" y="-10" type="curve" smooth="yes"/>
      <point x="359" y="-10"/>
      <point x="398" y="22"/>
      <point x="420" y="50" type="curve"/>
      <point x="420" y="27" type="line"/>
      <point x="420" y="12"/>
      <point x="432" y="0"/>
      <point x="447" y="0" type="curve" name="hr01"/>
      <point x="568" y="0" type="line"/>
      <point x="583" y="0"/>
      <point x="595" y="12"/>
      <point x="595" y="27" type="curve"/>
      <point x="595" y="493" type="line"/>
      <point x="595" y="508"/>
      <point x="583" y="520"/>
      <point x="568" y="520" type="curve"/>
      <point x="442" y="520" type="line"/>
      <point x="427" y="520"/>
      <point x="415" y="508"/>
      <point x="415" y="493" type="curve"/>
      <point x="415" y="240" type="line"/>
      <point x="415" y="183"/>
      <point x="379" y="145"/>
      <point x="319" y="145" type="curve" name="hr02" smooth="yes"/>
      <point x="262" y="145"/>
      <point x="243" y="179"/>
      <point x="242" y="231" type="curve"/>
      <point x="242" y="493" type="line"/>
      <point x="242" y="508"/>
      <point x="230" y="520"/>
      <point x="215" y="520" type="curve"/>
      <point x="89" y="520" type="line"/>
      <point x="74" y="520"/>
      <point x="62" y="508"/>
      <point x="62" y="493" type="curve"/>
      <point x="62" y="486" type="line"/>
      <point x="62" y="483" type="line"/>
    </contour>
  </outline>
</glyph>
<glyph name="paragraph" format="1">
  <advance width="620"/>
  <unicode hex="00B6"/>
  <outline>
    <contour>
      <point x="27" y="508" type="curve" name="hr00" smooth="yes"/>
      <point x="27" y="402"/>
      <point x="113" y="316"/>
      <point x="219" y="316" type="curve"/>
      <point x="219" y="-73" type="line" smooth="yes"/>
      <point x="219" y="-88"/>
      <point x="231" y="-100"/>
      <point x="246" y="-100" type="curve" smooth="yes"/>
      <point x="319" y="-100" type="line" smooth="yes"/>
      <point x="334" y="-100"/>
      <point x="346" y="-88"/>
      <point x="346" y="-73" type="curve" smooth="yes"/>
      <point x="346" y="583" type="line"/>
      <point x="425" y="583" type="line"/>
      <point x="425" y="-73" type="line" smooth="yes"/>
      <point x="425" y="-88"/>
      <point x="437" y="-100"/>
      <point x="452" y="-100" type="curve" smooth="yes"/>
      <point x="525" y="-100" type="line" smooth="yes"/>
      <point x="540" y="-100"/>
      <point x="552" y="-88"/>
      <point x="552" y="-73" type="curve" smooth="yes"/>
      <point x="552" y="673" type="line" smooth="yes"/>
      <point x="552" y="688"/>
      <point x="540" y="700"/>
      <point x="525" y="700" type="curve" smooth="yes"/>
      <point x="219" y="700" type="line" smooth="yes"/>
      <point x="113" y="700"/>
      <point x="27" y="614"/>
    </contour>
  </outline>
</glyph>
<glyph name="ordmasculine" format="1">
  <advance width="352"/>
  <unicode hex="00BA"/>
  <outline>
    <contour>
      <point x="176" y="705" type="curve" name="hr00" smooth="yes"/>
      <point x="110" y="705"/>
      <point x="40" y="666"/>
      <point x="36" y="594" type="curve" smooth="yes"/>
      <point x="35" y="584"/>
      <point x="35" y="550"/>
      <point x="36" y="540" type="curve" smooth="yes"/>
      <point x="40" y="468"/>
      <point x="104" y="429"/>
      <point x="176" y="429" type="curve" smooth="yes"/>
      <point x="248" y="429"/>
      <point x="312" y="468"/>
      <point x="316" y="540" type="curve" smooth="yes"/>
      <point x="317" y="550"/>
      <point x="317" y="584"/>
      <point x="316" y="594" type="curve" smooth="yes"/>
      <point x="312" y="666"/>
      <point x="242" y="705"/>
    </contour>
    <contour>
      <point x="176" y="629" type="curve" smooth="yes"/>
      <point x="193" y="629"/>
      <point x="203" y="619"/>
      <point x="205" y="589" type="curve" smooth="yes"/>
      <point x="206" y="579"/>
      <point x="206" y="555"/>
      <point x="205" y="545" type="curve" smooth="yes"/>
      <point x="203" y="512"/>
      <point x="193" y="505"/>
      <point x="176" y="505" type="curve" smooth="yes"/>
      <point x="159" y="505"/>
      <point x="149" y="512"/>
      <point x="147" y="545" type="curve" smooth="yes"/>
      <point x="146" y="555"/>
      <point x="146" y="579"/>
      <point x="147" y="589" type="curve" smooth="yes"/>
      <point x="149" y="619"/>
      <point x="159" y="629"/>
    </contour>
  </outline>
</glyph>
<glyph name="Ccedilla" format="1">
  <advance width="702"/>
  <unicode hex="00C7"/>
  <outline>
    <contour>
      <point x="231" y="434" type="curve" name="hr00" smooth="yes"/>
      <point x="236" y="495"/>
      <point x="267" y="550"/>
      <point x="357" y="550" type="curve" smooth="yes"/>
      <point x="447" y="550"/>
      <point x="471" y="503"/>
      <point x="482" y="471" type="curve" smooth="yes"/>
      <point x="489" y="450"/>
      <point x="494" y="442"/>
      <point x="516" y="442" type="curve"/>
      <point x="647" y="442" type="line"/>
      <point x="659" y="442"/>
      <point x="669" y="452"/>
      <point x="669" y="464" type="curve" smooth="yes"/>
      <point x="666" y="600"/>
      <point x="533" y="710"/>
      <point x="357" y="710" type="curve" smooth="yes"/>
      <point x="165" y="710"/>
      <point x="52" y="586"/>
      <point x="46" y="439" type="curve" smooth="yes"/>
      <point x="44" y="382"/>
      <point x="43" y="315"/>
      <point x="46" y="261" type="curve" smooth="yes"/>
      <point x="52" y="129"/>
      <point x="143" y="16"/>
      <point x="300" y="-6" type="curve"/>
      <point x="278" y="-52" type="line"/>
      <point x="269" y="-71"/>
      <point x="272" y="-75"/>
      <point x="280" y="-85" type="curve"/>
      <point x="298" y="-106" type="line"/>
      <point x="311" y="-119"/>
      <point x="334" y="-105"/>
      <point x="352" y="-105" type="curve" smooth="yes"/>
      <point x="372" y="-105"/>
      <point x="385" y="-113"/>
      <point x="385" y="-132" type="curve" smooth="yes"/>
      <point x="385" y="-152"/>
      <point x="371" y="-159"/>
      <point x="352" y="-159" type="curve" smooth="yes"/>
      <point x="317" y="-159"/>
      <point x="315" y="-133"/>
      <point x="293" y="-153" type="curve"/>
      <point x="275" y="-169" type="line"/>
      <point x="252" y="-189"/>
      <point x="309" y="-220"/>
      <point x="352" y="-220" type="curve" smooth="yes"/>
      <point x="412" y="-220"/>
      <point x="451" y="-180"/>
      <point x="451" y="-132" type="curve" smooth="yes"/>
      <point x="451" y="-84"/>
      <point x="426" y="-44"/>
      <point x="375" y="-44" type="curve" smooth="yes"/>
      <point x="360" y="-44"/>
      <point x="346" y="-49"/>
      <point x="338" y="-54" type="curve"/>
      <point x="359" y="-10" type="line"/>
      <point x="534" y="-9"/>
      <point x="666" y="100"/>
      <point x="669" y="236" type="curve" smooth="yes"/>
      <point x="669" y="248"/>
      <point x="659" y="258"/>
      <point x="647" y="258" type="curve"/>
      <point x="516" y="258" type="line"/>
      <point x="494" y="258"/>
      <point x="489" y="250"/>
      <point x="482" y="229" type="curve" smooth="yes"/>
      <point x="471" y="197"/>
      <point x="447" y="150"/>
      <point x="357" y="150" type="curve" smooth="yes"/>
      <point x="267" y="150"/>
      <point x="236" y="205"/>
      <point x="231" y="266" type="curve" smooth="yes"/>
      <point x="228" y="302"/>
      <point x="228" y="399"/>
    </contour>
  </outline>
</glyph>
<glyph name="germandbls" format="1">
  <advance width="660"/>
  <unicode hex="00DF"/>
  <outline>
    <contour>
      <point x="293" y="27" type="line" smooth="yes"/>
      <point x="293" y="12"/>
      <point x="305" y="0"/>
      <point x="320" y="0" type="curve" smooth="yes"/>
      <point x="366" y="0" type="line" smooth="yes"/>
      <point x="521" y="0"/>
      <point x="625" y="80"/>
      <point x="625" y="219" type="curve" smooth="yes"/>
      <point x="625" y="301"/>
      <point x="574" y="350"/>
      <point x="544" y="370" type="curve"/>
      <point x="573" y="392"/>
      <point x="603" y="422"/>
      <point x="603" y="496" type="curve" name="hr01" smooth="yes"/>
      <point x="603" y="611"/>
      <point x="511" y="710"/>
      <point x="331" y="710" type="curve" smooth="yes"/>
      <point x="151" y="710"/>
      <point x="58" y="611"/>
      <point x="58" y="451" type="curve" smooth="yes"/>
      <point x="58" y="27" type="line" smooth="yes"/>
      <point x="58" y="12"/>
      <point x="70" y="0"/>
      <point x="85" y="0" type="curve" smooth="yes"/>
      <point x="206" y="0" type="line" smooth="yes"/>
      <point x="221" y="0"/>
      <point x="233" y="12"/>
      <point x="233" y="27" type="curve" smooth="yes"/>
      <point x="233" y="451" type="line" smooth="yes"/>
      <point x="233" y="532"/>
      <point x="270" y="555"/>
      <point x="331" y="555" type="curve" smooth="yes"/>
      <point x="393" y="555"/>
      <point x="430" y="536"/>
      <point x="430" y="496" type="curve" smooth="yes"/>
      <point x="430" y="456"/>
      <point x="393" y="438"/>
      <point x="346" y="438" type="curve" smooth="yes"/>
      <point x="315" y="438" type="line" smooth="yes"/>
      <point x="302" y="438"/>
      <point x="293" y="429"/>
      <point x="293" y="416" type="curve" smooth="yes"/>
      <point x="293" y="305" type="line" smooth="yes"/>
      <point x="293" y="292"/>
      <point x="302" y="283"/>
      <point x="315" y="283" type="curve" smooth="yes"/>
      <point x="361" y="283" type="line" smooth="yes"/>
      <point x="412" y="283"/>
      <point x="450" y="264"/>
      <point x="450" y="219" type="curve" name="hr02" smooth="yes"/>
      <point x="450" y="174"/>
      <point x="412" y="155"/>
      <point x="361" y="155" type="curve" smooth="yes"/>
      <point x="320" y="155" type="line" smooth="yes"/>
      <point x="305" y="155"/>
      <point x="293" y="143"/>
      <point x="293" y="128" type="curve" smooth="yes"/>
    </contour>
  </outline>
</glyph>
<glyph name="ae" format="1">
  <advance width="929"/>
  <unicode hex="00E6"/>
  <outline>
    <contour>
      <point x="869" y="203" type="line"/>
      <point x="884" y="203"/>
      <point x="896" y="215"/>
      <point x="896" y="230" type="curve"/>
      <point x="896" y="258" type="line"/>
      <point x="896" y="385"/>
      <point x="822" y="530"/>
      <point x="626" y="530" type="curve" smooth="yes"/>
      <point x="560" y="530"/>
      <point x="506" y="514"/>
      <point x="464" y="485" type="curve"/>
      <point x="425" y="513"/>
      <point x="370" y="530"/>
      <point x="298" y="530" type="curve" smooth="yes"/>
      <point x="161" y="530"/>
      <point x="64" y="448"/>
      <point x="59" y="387" type="curve" smooth="yes"/>
      <point x="58" y="374"/>
      <point x="68" y="365"/>
      <point x="81" y="365" type="curve"/>
      <point x="208" y="365" type="line"/>
      <point x="222" y="365"/>
      <point x="232" y="366"/>
      <point x="244" y="377" type="curve" smooth="yes"/>
      <point x="252" y="384"/>
      <point x="268" y="395"/>
      <point x="298" y="395" type="curve" name="hr01" smooth="yes"/>
      <point x="341" y="395"/>
      <point x="356" y="372"/>
      <point x="356" y="340" type="curve"/>
      <point x="239" y="320" type="line"/>
      <point x="88" y="294"/>
      <point x="24" y="235"/>
      <point x="24" y="148" type="curve" smooth="yes"/>
      <point x="24" y="58"/>
      <point x="88" y="-10"/>
      <point x="223" y="-10" type="curve" smooth="yes"/>
      <point x="322" y="-10"/>
      <point x="374" y="16"/>
      <point x="423" y="65" type="curve"/>
      <point x="469" y="17"/>
      <point x="537" y="-10"/>
      <point x="626" y="-10" type="curve" smooth="yes"/>
      <point x="811" y="-10"/>
      <point x="888" y="109"/>
      <point x="888" y="140" type="curve" smooth="yes"/>
      <point x="888" y="153"/>
      <point x="879" y="162"/>
      <point x="866" y="162" type="curve" name="hr02"/>
      <point x="736" y="162" type="line"/>
      <point x="720" y="162"/>
      <point x="717" y="160"/>
      <point x="703" y="148" type="curve" smooth="yes"/>
      <point x="687" y="134"/>
      <point x="666" y="125"/>
      <point x="626" y="125" type="curve" name="hr03" smooth="yes"/>
      <point x="586" y="125"/>
      <point x="536" y="142"/>
      <point x="536" y="203" type="curve"/>
    </contour>
    <contour>
      <point x="626" y="395" type="curve" smooth="yes"/>
      <point x="681" y="395"/>
      <point x="711" y="355"/>
      <point x="716" y="314" type="curve"/>
      <point x="536" y="314" type="line"/>
      <point x="541" y="355"/>
      <point x="571" y="395"/>
    </contour>
    <contour>
      <point x="252" y="125" type="curve" smooth="yes"/>
      <point x="222" y="125"/>
      <point x="204" y="134"/>
      <point x="204" y="159" type="curve" smooth="yes"/>
      <point x="204" y="184"/>
      <point x="228" y="200"/>
      <point x="264" y="207" type="curve"/>
      <point x="356" y="221" type="line"/>
      <point x="356" y="168"/>
      <point x="311" y="125"/>
    </contour>
  </outline>
</glyph>
<glyph name="ccedilla" format="1">
  <advance width="602"/>
  <unicode hex="00E7"/>
  <outline>
    <contour>
      <point x="217" y="295" type="curve" smooth="yes"/>
      <point x="221" y="343"/>
      <point x="255" y="375"/>
      <point x="308" y="375" type="curve" smooth="yes"/>
      <point x="352" y="375"/>
      <point x="372" y="362"/>
      <point x="387" y="339" type="curve" smooth="yes"/>
      <point x="394" y="328"/>
      <point x="401" y="319"/>
      <point x="416" y="319" type="curve" name="hr01"/>
      <point x="547" y="319" type="line"/>
      <point x="562" y="319"/>
      <point x="575" y="331"/>
      <point x="574" y="346" type="curve" smooth="yes"/>
      <point x="571" y="389"/>
      <point x="519" y="530"/>
      <point x="308" y="530" type="curve" smooth="yes"/>
      <point x="159" y="530"/>
      <point x="42" y="441"/>
      <point x="37" y="300" type="curve" smooth="yes"/>
      <point x="36" y="280"/>
      <point x="36" y="240"/>
      <point x="37" y="220" type="curve" smooth="yes"/>
      <point x="41" y="99"/>
      <point x="128" y="16"/>
      <point x="247" y="-4" type="curve"/>
      <point x="224" y="-52" type="line"/>
      <point x="215" y="-71"/>
      <point x="218" y="-75"/>
      <point x="226" y="-85" type="curve"/>
      <point x="244" y="-106" type="line"/>
      <point x="257" y="-119"/>
      <point x="280" y="-105"/>
      <point x="298" y="-105" type="curve" smooth="yes"/>
      <point x="318" y="-105"/>
      <point x="331" y="-113"/>
      <point x="331" y="-132" type="curve" smooth="yes"/>
      <point x="331" y="-152"/>
      <point x="317" y="-159"/>
      <point x="298" y="-159" type="curve" smooth="yes"/>
      <point x="263" y="-159"/>
      <point x="261" y="-133"/>
      <point x="239" y="-153" type="curve"/>
      <point x="221" y="-169" type="line"/>
      <point x="198" y="-189"/>
      <point x="255" y="-220"/>
      <point x="298" y="-220" type="curve" smooth="yes"/>
      <point x="358" y="-220"/>
      <point x="397" y="-180"/>
      <point x="397" y="-132" type="curve" smooth="yes"/>
      <point x="397" y="-84"/>
      <point x="372" y="-44"/>
      <point x="321" y="-44" type="curve" smooth="yes"/>
      <point x="306" y="-44"/>
      <point x="292" y="-49"/>
      <point x="284" y="-54" type="curve"/>
      <point x="305" y="-10" type="line"/>
      <point x="308" y="-10" type="line"/>
      <point x="519" y="-10"/>
      <point x="571" y="131"/>
      <point x="574" y="174" type="curve" smooth="yes"/>
      <point x="575" y="189"/>
      <point x="562" y="201"/>
      <point x="547" y="201" type="curve" name="hr02"/>
      <point x="416" y="201" type="line"/>
      <point x="401" y="201"/>
      <point x="394" y="192"/>
      <point x="387" y="181" type="curve" smooth="yes"/>
      <point x="372" y="158"/>
      <point x="352" y="145"/>
      <point x="308" y="145" type="curve" name="hr03" smooth="yes"/>
      <point x="255" y="145"/>
      <point x="221" y="177"/>
      <point x="217" y="225" type="curve" smooth="yes"/>
      <point x="215" y="245"/>
      <point x="215" y="275"/>
    </contour>
  </outline>
</glyph>
<glyph name="eth" format="1">
  <advance width="592"/>
  <unicode hex="00F0"/>
  <outline>
    <contour>
      <point x="554" y="230" type="curve" name="hr00" smooth="yes"/>
      <point x="554" y="411"/>
      <point x="515" y="510"/>
      <point x="446" y="593" type="curve"/>
      <point x="459" y="598" type="line"/>
      <point x="475" y="604"/>
      <point x="481" y="613"/>
      <point x="481" y="631" type="curve"/>
      <point x="481" y="679" type="line"/>
      <point x="481" y="691"/>
      <point x="472" y="700"/>
      <point x="460" y="700" type="curve" smooth="yes"/>
      <point x="458" y="700"/>
      <point x="454" y="699"/>
      <point x="449" y="697" type="curve"/>
      <point x="373" y="667" type="line"/>
      <point x="365" y="673"/>
      <point x="358" y="680"/>
      <point x="350" y="687" type="curve" smooth="yes"/>
      <point x="340" y="695"/>
      <point x="330" y="700"/>
      <point x="314" y="700" type="curve"/>
      <point x="158" y="700" type="line"/>
      <point x="146" y="700"/>
      <point x="138" y="692"/>
      <point x="138" y="680" type="curve" smooth="yes"/>
      <point x="138" y="675"/>
      <point x="141" y="669"/>
      <point x="155" y="658" type="curve" smooth="yes"/>
      <point x="177" y="640"/>
      <point x="198" y="623"/>
      <point x="218" y="605" type="curve"/>
      <point x="187" y="593" type="line"/>
      <point x="171" y="587"/>
      <point x="165" y="578"/>
      <point x="165" y="560" type="curve"/>
      <point x="165" y="512" type="line"/>
      <point x="165" y="500"/>
      <point x="174" y="491"/>
      <point x="186" y="491" type="curve" smooth="yes"/>
      <point x="188" y="491"/>
      <point x="192" y="492"/>
      <point x="197" y="494" type="curve"/>
      <point x="290" y="531" type="line"/>
      <point x="305" y="511"/>
      <point x="318" y="490"/>
      <point x="328" y="468" type="curve"/>
      <point x="315" y="469"/>
      <point x="301" y="470"/>
      <point x="288" y="470" type="curve" smooth="yes"/>
      <point x="149" y="470"/>
      <point x="32" y="392"/>
      <point x="32" y="230" type="curve" smooth="yes"/>
      <point x="32" y="68"/>
      <point x="150" y="-10"/>
      <point x="289" y="-10" type="curve" smooth="yes"/>
      <point x="428" y="-10"/>
      <point x="554" y="68"/>
    </contour>
    <contour>
      <point x="212" y="230" type="curve" smooth="yes"/>
      <point x="212" y="277"/>
      <point x="229" y="315"/>
      <point x="288" y="315" type="curve" smooth="yes"/>
      <point x="347" y="315"/>
      <point x="364" y="277"/>
      <point x="364" y="230" type="curve" smooth="yes"/>
      <point x="364" y="183"/>
      <point x="347" y="145"/>
      <point x="288" y="145" type="curve" smooth="yes"/>
      <point x="229" y="145"/>
      <point x="212" y="183"/>
    </contour>
  </outline>
</glyph>
<glyph name="thorn" format="1">
  <advance width="635"/>
  <unicode hex="00FE"/>
  <outline>
    <contour>
      <point x="373" y="-10" type="curve" name="hr00" smooth="yes"/>
      <point x="494" y="-10"/>
      <point x="591" y="63"/>
      <point x="597" y="220" type="curve" smooth="yes"/>
      <point x="598" y="240"/>
      <point x="598" y="281"/>
      <point x="597" y="301" type="curve" smooth="yes"/>
      <point x="591" y="458"/>
      <point x="493" y="530"/>
      <point x="373" y="530" type="curve" smooth="yes"/>
      <point x="293" y="530"/>
      <point x="260" y="497"/>
      <point x="239" y="470" type="curve"/>
      <point x="239" y="683" type="line" smooth="yes"/>
      <point x="239" y="698"/>
      <point x="227" y="710"/>
      <point x="212" y="710" type="curve" smooth="yes"/>
      <point x="86" y="710" type="line" smooth="yes"/>
      <point x="71" y="710"/>
      <point x="59" y="698"/>
      <point x="59" y="683" type="curve" smooth="yes"/>
      <point x="59" y="-163" type="line" smooth="yes"/>
      <point x="59" y="-178"/>
      <point x="71" y="-190"/>
      <point x="86" y="-190" type="curve" smooth="yes"/>
      <point x="212" y="-190" type="line" smooth="yes"/>
      <point x="227" y="-190"/>
      <point x="239" y="-178"/>
      <point x="239" y="-163" type="curve" smooth="yes"/>
      <point x="239" y="50" type="line"/>
      <point x="257" y="25"/>
      <point x="296" y="-10"/>
    </contour>
    <contour>
      <point x="418" y="232" type="curve" smooth="yes"/>
      <point x="414" y="185"/>
      <point x="390" y="145"/>
      <point x="328" y="145" type="curve" smooth="yes"/>
      <point x="269" y="145"/>
      <point x="244" y="186"/>
      <point x="239" y="225" type="curve" smooth="yes"/>
      <point x="236" y="245"/>
      <point x="236" y="275"/>
      <point x="239" y="295" type="curve" smooth="yes"/>
      <point x="245" y="334"/>
      <point x="269" y="375"/>
      <point x="328" y="375" type="curve" smooth="yes"/>
      <point x="390" y="375"/>
      <point x="414" y="335"/>
      <point x="418" y="288" type="curve" smooth="yes"/>
      <point x="420" y="268"/>
      <point x="420" y="252"/>
    </contour>
  </outline>
</glyph>
<glyph name="IJ" format="1">
  <advance width="724"/>
  <unicode hex="0132"/>
  <outline>
    <contour>
      <point x="476" y="673" type="curve"/>
      <point x="476" y="261" type="line"/>
      <point x="476" y="190"/>
      <point x="438" y="150"/>
      <point x="362" y="150" type="curve" smooth="yes"/>
      <point x="347" y="150"/>
      <point x="335" y="138"/>
      <point x="335" y="123" type="curve"/>
      <point x="335" y="17" type="line"/>
      <point x="335" y="2"/>
      <point x="347" y="-10"/>
      <point x="362" y="-10" type="curve" smooth="yes"/>
      <point x="522" y="-10"/>
      <point x="660" y="79"/>
      <point x="660" y="255" type="curve"/>
      <point x="660" y="673" type="line"/>
      <point x="660" y="688"/>
      <point x="648" y="700"/>
      <point x="633" y="700" type="curve"/>
      <point x="503" y="700" type="line"/>
      <point x="488" y="700"/>
      <point x="476" y="688"/>
    </contour>
    <contour>
      <point x="228" y="0" type="line" name="hr01"/>
      <point x="243" y="0"/>
      <point x="255" y="12"/>
      <point x="255" y="27" type="curve"/>
      <point x="255" y="673" type="line"/>
      <point x="255" y="688"/>
      <point x="243" y="700"/>
      <point x="228" y="700" type="curve"/>
      <point x="97" y="700" type="line"/>
      <point x="82" y="700"/>
      <point x="70" y="688"/>
      <point x="70" y="673" type="curve"/>
      <point x="70" y="27" type="line"/>
      <point x="70" y="12"/>
      <point x="82" y="0"/>
      <point x="97" y="0" type="curve"/>
    </contour>
  </outline>
</glyph>
<glyph name="eng" format="1">
  <advance width="644"/>
  <unicode hex="014B"/>
  <outline>
    <contour>
      <point x="591" y="302" type="line"/>
      <point x="591" y="459"/>
      <point x="503" y="530"/>
      <point x="374" y="530" type="curve" smooth="yes"/>
      <point x="294" y="530"/>
      <point x="255" y="498"/>
      <point x="233" y="470" type="curve"/>
      <point x="233" y="493" type="line"/>
      <point x="233" y="508"/>
      <point x="221" y="520"/>
      <point x="206" y="520" type="curve" name="hr01"/>
      <point x="85" y="520" type="line"/>
      <point x="70" y="520"/>
      <point x="58" y="508"/>
      <point x="58" y="493" type="curve"/>
      <point x="58" y="27" type="line"/>
      <point x="58" y="12"/>
      <point x="70" y="0"/>
      <point x="85" y="0" type="curve"/>
      <point x="211" y="0" type="line"/>
      <point x="226" y="0"/>
      <point x="238" y="12"/>
      <point x="238" y="27" type="curve"/>
      <point x="238" y="280" type="line"/>
      <point x="238" y="337"/>
      <point x="264" y="375"/>
      <point x="324" y="375" type="curve" name="hr02" smooth="yes"/>
      <point x="384" y="375"/>
      <point x="411" y="337"/>
      <point x="411" y="280" type="curve"/>
      <point x="411" y="-22" type="line"/>
      <point x="411" y="-47"/>
      <point x="400" y="-70"/>
      <point x="368" y="-70" type="curve"/>
      <point x="328" y="-70" type="line"/>
      <point x="313" y="-70"/>
      <point x="301" y="-87"/>
      <point x="301" y="-102" type="curve"/>
      <point x="301" y="-198" type="line"/>
      <point x="301" y="-213"/>
      <point x="313" y="-225"/>
      <point x="328" y="-225" type="curve"/>
      <point x="378" y="-225" type="line"/>
      <point x="503" y="-225"/>
      <point x="591" y="-150"/>
      <point x="591" y="-27" type="curve"/>
    </contour>
  </outline>
</glyph>
<glyph name="ogonek" format="1">
  <advance width="313"/>
  <unicode hex="02DB"/>
  <outline>
    <contour>
      <point x="236" y="-220" type="line" smooth="yes"/>
      <point x="249" y="-220"/>
      <point x="258" y="-211"/>
      <point x="258" y="-198" type="curve" smooth="yes"/>
      <point x="258" y="-134" type="line" smooth="yes"/>
      <point x="258" y="-121"/>
      <point x="249" y="-112"/>
      <point x="236" y="-112" type="curve" smooth="yes"/>
      <point x="221" y="-112" type="line" smooth="yes"/>
      <point x="187" y="-112"/>
      <point x="167" y="-87"/>
      <point x="167" y="-56" type="curve" name="hr01" smooth="yes"/>
      <point x="167" y="-25"/>
      <point x="187" y="0"/>
      <point x="221" y="0" type="curve" smooth="yes"/>
      <point x="236" y="0" type="line" smooth="yes"/>
      <point x="249" y="0"/>
      <point x="258" y="9"/>
      <point x="258" y="22" type="curve" name="hr02" smooth="yes"/>
      <point x="258" y="86" type="line" smooth="yes"/>
      <point x="258" y="99"/>
      <point x="249" y="108"/>
      <point x="236" y="108" type="curve" smooth="yes"/>
      <point x="217" y="108" type="line" smooth="yes"/>
      <point x="116" y="108"/>
      <point x="55" y="39"/>
      <point x="55" y="-56" type="curve" smooth="yes"/>
      <point x="55" y="-151"/>
      <point x="116" y="-220"/>
      <point x="217" y="-220" type="curve" smooth="yes"/>
    </contour>
  </outline>
</glyph>
<glyph name="hungarumlaut" format="1">
  <advance width="554"/>
  <unicode hex="02DD"/>
  <outline>
    <contour>
      <point x="60" y="626" type="line" name="hr00" smooth="yes"/>
      <point x="58" y="622"/>
      <point x="55" y="616"/>
      <point x="55" y="611" type="curve" smooth="yes"/>
      <point x="55" y="601"/>
      <point x="61" y="595"/>
      <point x="71" y="595" type="curve" smooth="yes"/>
      <point x="134" y="595" type="line" smooth="yes"/>
      <point x="147" y="595"/>
      <point x="160" y="600"/>
      <point x="168" y="609" type="curve" smooth="yes"/>
      <point x="273" y="723" type="line" smooth="yes"/>
      <point x="276" y="726"/>
      <point x="279" y="731"/>
      <point x="279" y="736" type="curve" smooth="yes"/>
      <point x="279" y="748"/>
      <point x="271" y="755"/>
      <point x="259" y="755" type="curve" smooth="yes"/>
      <point x="147" y="755" type="line" smooth="yes"/>
      <point x="126" y="755"/>
      <point x="116" y="749"/>
      <point x="110" y="736" type="curve" smooth="yes"/>
    </contour>
    <contour>
      <point x="280" y="626" type="line" smooth="yes"/>
      <point x="278" y="622"/>
      <point x="275" y="616"/>
      <point x="275" y="611" type="curve" smooth="yes"/>
      <point x="275" y="601"/>
      <point x="281" y="595"/>
      <point x="291" y="595" type="curve" smooth="yes"/>
      <point x="354" y="595" type="line" smooth="yes"/>
      <point x="367" y="595"/>
      <point x="380" y="600"/>
      <point x="388" y="609" type="curve" smooth="yes"/>
      <point x="493" y="723" type="line" smooth="yes"/>
      <point x="496" y="726"/>
      <point x="499" y="731"/>
      <point x="499" y="736" type="curve" smooth="yes"/>
      <point x="499" y="748"/>
      <point x="491" y="755"/>
      <point x="479" y="755" type="curve" smooth="yes"/>
      <point x="367" y="755" type="line" smooth="yes"/>
      <point x="346" y="755"/>
      <point x="336" y="749"/>
      <point x="330" y="736" type="curve" smooth="yes"/>
    </contour>
  </outline>
</glyph>
<glyph name="afii10033" format="1">
  <advance width="752"/>
  <unicode hex="041F"/>
  <outline>
    <contour>
      <point x="655" y="700" type="curve" name="hr00"/>
      <point x="97" y="700" type="line" smooth="yes"/>
      <point x="82" y="700"/>
      <point x="70" y="688"/>
      <point x="70" y="673" type="curve" smooth="yes"/>
      <point x="70" y="27" type="line" smooth="yes"/>
      <point x="70" y="12"/>
      <point x="82" y="0"/>
      <point x="97" y="0" type="curve" smooth="yes"/>
      <point x="228" y="0" type="line" smooth="yes"/>
      <point x="243" y="0"/>
      <point x="255" y="12"/>
      <point x="255" y="27" type="curve" smooth="yes"/>
      <point x="255" y="540" type="line"/>
      <point x="497" y="540" type="line"/>
      <point x="497" y="27" type="line" smooth="yes"/>
      <point x="497" y="12"/>
      <point x="509" y="0"/>
      <point x="524" y="0" type="curve" smooth="yes"/>
      <point x="655" y="0" type="line" smooth="yes"/>
      <point x="670" y="0"/>
      <point x="682" y="12"/>
      <point x="682" y="27" type="curve" smooth="yes"/>
      <point x="682" y="673" type="line" smooth="yes"/>
      <point x="682" y="688"/>
      <point x="670" y="700"/>
    </contour>
  </outline>
</glyph>
<glyph name="afii10043" format="1">
  <advance width="986"/>
  <unicode hex="0429"/>
  <outline>
    <contour>
      <point x="97" y="0" type="curve"/>
      <point x="791" y="0" type="line"/>
      <point x="791" y="-83" type="line" smooth="yes"/>
      <point x="791" y="-98"/>
      <point x="803" y="-110"/>
      <point x="818" y="-110" type="curve" smooth="yes"/>
      <point x="929" y="-110" type="line" smooth="yes"/>
      <point x="944" y="-110"/>
      <point x="956" y="-98"/>
      <point x="956" y="-83" type="curve" smooth="yes"/>
      <point x="956" y="133" type="line" smooth="yes"/>
      <point x="956" y="148"/>
      <point x="944" y="160"/>
      <point x="929" y="160" type="curve" smooth="yes"/>
      <point x="867" y="160" type="line" name="hr01"/>
      <point x="867" y="673" type="line" smooth="yes"/>
      <point x="867" y="688"/>
      <point x="855" y="700"/>
      <point x="840" y="700" type="curve" smooth="yes"/>
      <point x="709" y="700" type="line" smooth="yes"/>
      <point x="694" y="700"/>
      <point x="682" y="688"/>
      <point x="682" y="673" type="curve" smooth="yes"/>
      <point x="682" y="160" type="line"/>
      <point x="561" y="160" type="line"/>
      <point x="561" y="673" type="line" smooth="yes"/>
      <point x="561" y="688"/>
      <point x="549" y="700"/>
      <point x="534" y="700" type="curve" smooth="yes"/>
      <point x="403" y="700" type="line" smooth="yes"/>
      <point x="388" y="700"/>
      <point x="376" y="688"/>
      <point x="376" y="673" type="curve" smooth="yes"/>
      <point x="376" y="160" type="line"/>
      <point x="255" y="160" type="line"/>
      <point x="255" y="673" type="line" smooth="yes"/>
      <point x="255" y="688"/>
      <point x="243" y="700"/>
      <point x="228" y="700" type="curve" smooth="yes"/>
      <point x="97" y="700" type="line" smooth="yes"/>
      <point x="82" y="700"/>
      <point x="70" y="688"/>
      <point x="70" y="673" type="curve" smooth="yes"/>
      <point x="70" y="27" type="line" smooth="yes"/>
      <point x="70" y="12"/>
      <point x="82" y="0"/>
    </contour>
  </outline>
</glyph>
<glyph name="afii10066" format="1">
  <advance width="590"/>
  <unicode hex="0431"/>
  <outline>
    <contour>
      <point x="36" y="240" type="curve" smooth="yes"/>
      <point x="36" y="68"/>
      <point x="154" y="-10"/>
      <point x="293" y="-10" type="curve" smooth="yes"/>
      <point x="432" y="-10"/>
      <point x="558" y="68"/>
      <point x="558" y="230" type="curve" smooth="yes"/>
      <point x="558" y="392"/>
      <point x="429" y="470"/>
      <point x="290" y="470" type="curve"/>
      <point x="352" y="555"/>
      <point x="431" y="613"/>
      <point x="431" y="703" type="curve" name="hr01" smooth="yes"/>
      <point x="431" y="718"/>
      <point x="419" y="730"/>
      <point x="404" y="730" type="curve" smooth="yes"/>
      <point x="278" y="730" type="line" smooth="yes"/>
      <point x="263" y="730"/>
      <point x="251" y="718"/>
      <point x="251" y="703" type="curve" smooth="yes"/>
      <point x="251" y="591"/>
      <point x="36" y="529"/>
    </contour>
    <contour>
      <point x="216" y="230" type="curve" smooth="yes"/>
      <point x="216" y="277"/>
      <point x="233" y="315"/>
      <point x="292" y="315" type="curve" smooth="yes"/>
      <point x="351" y="315"/>
      <point x="368" y="277"/>
      <point x="368" y="230" type="curve" name="hr02" smooth="yes"/>
      <point x="368" y="183"/>
      <point x="351" y="145"/>
      <point x="292" y="145" type="curve" smooth="yes"/>
      <point x="233" y="145"/>
      <point x="216" y="183"/>
    </contour>
  </outline>
</glyph>
<glyph name="afii10076" format="1">
  <advance width="607"/>
  <unicode hex="043A"/>
  <outline>
    <contour>
      <point x="238" y="493" type="line" name="hr00" smooth="yes"/>
      <point x="238" y="508"/>
      <point x="226" y="520"/>
      <point x="211" y="520" type="curve" smooth="yes"/>
      <point x="85" y="520" type="line" smooth="yes"/>
      <point x="70" y="520"/>
      <point x="58" y="508"/>
      <point x="58" y="493" type="curve" smooth="yes"/>
      <point x="58" y="27" type="line" smooth="yes"/>
      <point x="58" y="12"/>
      <point x="70" y="0"/>
      <point x="85" y="0" type="curve" smooth="yes"/>
      <point x="211" y="0" type="line" smooth="yes"/>
      <point x="226" y="0"/>
      <point x="238" y="12"/>
      <point x="238" y="27" type="curve" smooth="yes"/>
      <point x="238" y="181" type="line"/>
      <point x="388" y="17" type="line" smooth="yes"/>
      <point x="397" y="7"/>
      <point x="409" y="0"/>
      <point x="429" y="0" type="curve" smooth="yes"/>
      <point x="579" y="0" type="line" smooth="yes"/>
      <point x="592" y="0"/>
      <point x="603" y="11"/>
      <point x="603" y="24" type="curve" smooth="yes"/>
      <point x="603" y="30"/>
      <point x="601" y="34"/>
      <point x="593" y="43" type="curve" smooth="yes"/>
      <point x="390" y="265" type="line"/>
      <point x="572" y="476" type="line"/>
      <point x="582" y="486"/>
      <point x="583" y="490"/>
      <point x="583" y="496" type="curve" smooth="yes"/>
      <point x="583" y="509"/>
      <point x="572" y="520"/>
      <point x="559" y="520" type="curve" smooth="yes"/>
      <point x="416" y="520" type="line" smooth="yes"/>
      <point x="398" y="520"/>
      <point x="384" y="510"/>
      <point x="377" y="503" type="curve" smooth="yes"/>
      <point x="238" y="349" type="line"/>
    </contour>
  </outline>
</glyph>
<glyph name="afii10077" format="1">
  <advance width="632"/>
  <unicode hex="043B"/>
  <outline>
    <contour>
      <point x="394" y="365" type="line"/>
      <point x="394" y="27" type="line" smooth="yes"/>
      <point x="394" y="12"/>
      <point x="406" y="0"/>
      <point x="421" y="0" type="curve" smooth="yes"/>
      <point x="547" y="0" type="line" smooth="yes"/>
      <point x="562" y="0"/>
      <point x="574" y="12"/>
      <point x="574" y="27" type="curve" smooth="yes"/>
      <point x="574" y="493" type="line" smooth="yes"/>
      <point x="574" y="508"/>
      <point x="562" y="520"/>
      <point x="547" y="520" type="curve" smooth="yes"/>
      <point x="146" y="520" type="line" smooth="yes"/>
      <point x="131" y="520"/>
      <point x="119" y="508"/>
      <point x="119" y="493" type="curve" smooth="yes"/>
      <point x="119" y="207" type="line" smooth="yes"/>
      <point x="119" y="155"/>
      <point x="103" y="145"/>
      <point x="45" y="145" type="curve" smooth="yes"/>
      <point x="30" y="145"/>
      <point x="18" y="133"/>
      <point x="18" y="118" type="curve" smooth="yes"/>
      <point x="18" y="17" type="line" smooth="yes"/>
      <point x="18" y="2"/>
      <point x="30" y="-10"/>
      <point x="45" y="-10" type="curve" name="hr01" smooth="yes"/>
      <point x="61" y="-10" type="line" smooth="yes"/>
      <point x="210" y="-10"/>
      <point x="299" y="60"/>
      <point x="299" y="202" type="curve" smooth="yes"/>
      <point x="299" y="365" type="line"/>
    </contour>
  </outline>
</glyph>
<glyph name="afii10086" format="1">
  <advance width="911"/>
  <unicode hex="0444"/>
  <outline>
    <contour>
      <point x="247" y="-10" type="curve" name="hr00" smooth="yes"/>
      <point x="304" y="-10"/>
      <point x="343" y="15"/>
      <point x="366" y="50" type="curve"/>
      <point x="366" y="-163" type="line"/>
      <point x="366" y="-178"/>
      <point x="378" y="-190"/>
      <point x="393" y="-190" type="curve"/>
      <point x="518" y="-190" type="line"/>
      <point x="533" y="-190"/>
      <point x="545" y="-178"/>
      <point x="545" y="-163" type="curve"/>
      <point x="545" y="50" type="line"/>
      <point x="568" y="15"/>
      <point x="607" y="-10"/>
      <point x="664" y="-10" type="curve" smooth="yes"/>
      <point x="765" y="-10"/>
      <point x="867" y="63"/>
      <point x="873" y="220" type="curve" smooth="yes"/>
      <point x="874" y="240"/>
      <point x="874" y="281"/>
      <point x="873" y="301" type="curve" smooth="yes"/>
      <point x="867" y="458"/>
      <point x="764" y="530"/>
      <point x="664" y="530" type="curve" smooth="yes"/>
      <point x="606" y="530"/>
      <point x="564" y="498"/>
      <point x="545" y="470" type="curve"/>
      <point x="545" y="683" type="line"/>
      <point x="545" y="698"/>
      <point x="533" y="710"/>
      <point x="518" y="710" type="curve"/>
      <point x="393" y="710" type="line"/>
      <point x="378" y="710"/>
      <point x="366" y="698"/>
      <point x="366" y="683" type="curve"/>
      <point x="366" y="470" type="line"/>
      <point x="347" y="498"/>
      <point x="305" y="530"/>
      <point x="247" y="530" type="curve" smooth="yes"/>
      <point x="147" y="530"/>
      <point x="44" y="458"/>
      <point x="38" y="301" type="curve" smooth="yes"/>
      <point x="37" y="281"/>
      <point x="37" y="240"/>
      <point x="38" y="220" type="curve" smooth="yes"/>
      <point x="44" y="63"/>
      <point x="146" y="-10"/>
    </contour>
    <contour>
      <point x="217" y="232" type="curve" smooth="yes"/>
      <point x="215" y="252"/>
      <point x="215" y="268"/>
      <point x="217" y="288" type="curve" smooth="yes"/>
      <point x="221" y="335"/>
      <point x="242" y="375"/>
      <point x="294" y="375" type="curve" smooth="yes"/>
      <point x="343" y="375"/>
      <point x="360" y="334"/>
      <point x="366" y="295" type="curve" smooth="yes"/>
      <point x="369" y="275"/>
      <point x="369" y="245"/>
      <point x="366" y="225" type="curve" smooth="yes"/>
      <point x="361" y="186"/>
      <point x="343" y="145"/>
      <point x="294" y="145" type="curve" smooth="yes"/>
      <point x="242" y="145"/>
      <point x="221" y="185"/>
    </contour>
    <contour>
      <point x="694" y="232" type="curve" smooth="yes"/>
      <point x="690" y="185"/>
      <point x="669" y="145"/>
      <point x="617" y="145" type="curve" smooth="yes"/>
      <point x="568" y="145"/>
      <point x="550" y="186"/>
      <point x="545" y="225" type="curve" smooth="yes"/>
      <point x="542" y="245"/>
      <point x="542" y="275"/>
      <point x="545" y="295" type="curve" smooth="yes"/>
      <point x="551" y="334"/>
      <point x="568" y="375"/>
      <point x="617" y="375" type="curve" smooth="yes"/>
      <point x="669" y="375"/>
      <point x="690" y="335"/>
      <point x="694" y="288" type="curve" smooth="yes"/>
      <point x="696" y="268"/>
      <point x="696" y="252"/>
    </contour>
  </outline>
</glyph>
<glyph name="afii10096" format="1">
  <advance width="928"/>
  <unicode hex="044E"/>
  <outline>
    <contour>
      <point x="892" y="298" type="curve" smooth="yes"/>
      <point x="888" y="425"/>
      <point x="783" y="530"/>
      <point x="620" y="530" type="curve" smooth="yes"/>
      <point x="473" y="530"/>
      <point x="373" y="445"/>
      <point x="352" y="335" type="curve"/>
      <point x="238" y="335" type="line"/>
      <point x="238" y="493" type="line"/>
      <point x="238" y="508"/>
      <point x="226" y="520"/>
      <point x="211" y="520" type="curve" name="hr01"/>
      <point x="85" y="520" type="line"/>
      <point x="70" y="520"/>
      <point x="58" y="508"/>
      <point x="58" y="493" type="curve"/>
      <point x="58" y="27" type="line"/>
      <point x="58" y="11"/>
      <point x="70" y="0"/>
      <point x="85" y="0" type="curve"/>
      <point x="211" y="0" type="line"/>
      <point x="226" y="0"/>
      <point x="238" y="12"/>
      <point x="238" y="27" type="curve"/>
      <point x="238" y="180" type="line"/>
      <point x="353" y="180" type="line"/>
      <point x="377" y="72"/>
      <point x="475" y="-10"/>
      <point x="620" y="-10" type="curve" name="hr02" smooth="yes"/>
      <point x="783" y="-10"/>
      <point x="886" y="94"/>
      <point x="892" y="221" type="curve" smooth="yes"/>
      <point x="893" y="241"/>
      <point x="893" y="278"/>
    </contour>
    <contour>
      <point x="528" y="226" type="curve" smooth="yes"/>
      <point x="526" y="246"/>
      <point x="526" y="274"/>
      <point x="528" y="294" type="curve" smooth="yes"/>
      <point x="532" y="345"/>
      <point x="567" y="375"/>
      <point x="620" y="375" type="curve" smooth="yes"/>
      <point x="673" y="375"/>
      <point x="708" y="345"/>
      <point x="712" y="294" type="curve" smooth="yes"/>
      <point x="714" y="274"/>
      <point x="714" y="246"/>
      <point x="712" y="226" type="curve" smooth="yes"/>
      <point x="708" y="175"/>
      <point x="673" y="145"/>
      <point x="620" y="145" type="curve" smooth="yes"/>
      <point x="567" y="145"/>
      <point x="532" y="175"/>
    </contour>
  </outline>
</glyph>
<glyph name="afii10106" format="1">
  <advance width="951"/>
  <unicode hex="0459"/>
  <outline>
    <contour>
      <point x="929" y="209" type="curve" smooth="yes"/>
      <point x="929" y="335"/>
      <point x="830" y="419"/>
      <point x="699" y="419" type="curve"/>
      <point x="599" y="419" type="line"/>
      <point x="599" y="493" type="line"/>
      <point x="599" y="508"/>
      <point x="587" y="520"/>
      <point x="572" y="520" type="curve" name="hr01"/>
      <point x="146" y="520" type="line"/>
      <point x="131" y="520"/>
      <point x="119" y="508"/>
      <point x="119" y="493" type="curve"/>
      <point x="119" y="207" type="line"/>
      <point x="119" y="155"/>
      <point x="103" y="145"/>
      <point x="45" y="145" type="curve" smooth="yes"/>
      <point x="30" y="145"/>
      <point x="18" y="133"/>
      <point x="18" y="118" type="curve"/>
      <point x="18" y="17" type="line"/>
      <point x="18" y="2"/>
      <point x="30" y="-10"/>
      <point x="45" y="-10" type="curve" name="hr02"/>
      <point x="61" y="-10" type="line"/>
      <point x="210" y="-10"/>
      <point x="299" y="60"/>
      <point x="299" y="202" type="curve"/>
      <point x="299" y="365" type="line"/>
      <point x="419" y="365" type="line"/>
      <point x="419" y="27" type="line"/>
      <point x="419" y="12"/>
      <point x="431" y="0"/>
      <point x="446" y="0" type="curve" name="hr03"/>
      <point x="699" y="0" type="line"/>
      <point x="830" y="0"/>
      <point x="929" y="83"/>
    </contour>
    <contour>
      <point x="599" y="264" type="line"/>
      <point x="681" y="264" type="line"/>
      <point x="722" y="264"/>
      <point x="749" y="247"/>
      <point x="749" y="209" type="curve" smooth="yes"/>
      <point x="749" y="171"/>
      <point x="722" y="155"/>
      <point x="681" y="155" type="curve"/>
      <point x="599" y="155" type="line"/>
    </contour>
  </outline>
</glyph>
<glyph name="tserehebrew" format="1">
  <advance width="0"/>
  <unicode hex="05B5"/>
  <outline>
    <contour>
      <point x="-38" y="-170" type="line" smooth="yes"/>
      <point x="-25" y="-170"/>
      <point x="-16" y="-161"/>
      <point x="-16" y="-148" type="curve" smooth="yes"/>
      <point x="-16" y="-98" type="line" smooth="yes"/>
      <point x="-16" y="-85"/>
      <point x="-25" y="-76"/>
      <point x="-38" y="-76" type="curve" smooth="yes"/>
      <point x="-94" y="-76" type="line" smooth="yes"/>
      <point x="-107" y="-76"/>
      <point x="-116" y="-85"/>
      <point x="-116" y="-98" type="curve" smooth="yes"/>
      <point x="-116" y="-148" type="line" smooth="yes"/>
      <point x="-116" y="-161"/>
      <point x="-107" y="-170"/>
      <point x="-94" y="-170" type="curve" smooth="yes"/>
    </contour>
    <contour>
      <point x="99" y="-170" type="line" smooth="yes"/>
      <point x="112" y="-170"/>
      <point x="121" y="-161"/>
      <point x="121" y="-148" type="curve" smooth="yes"/>
      <point x="121" y="-98" type="line" smooth="yes"/>
      <point x="121" y="-85"/>
      <point x="112" y="-76"/>
      <point x="99" y="-76" type="curve" smooth="yes"/>
      <point x="43" y="-76" type="line" smooth="yes"/>
      <point x="30" y="-76"/>
      <point x="21" y="-85"/>
      <point x="21" y="-98" type="curve" smooth="yes"/>
      <point x="21" y="-148" type="line" smooth="yes"/>
      <point x="21" y="-161"/>
      <point x="30" y="-170"/>
      <point x="43" y="-170" type="curve" smooth="yes"/>
    </contour>
    <contour>
      <point x="2" y="0" type="move" name="_bottom"/>
    </contour>
  </outline>
</glyph>
<glyph name="dageshhebrew" format="1">
  <advance width="78"/>
  <unicode hex="05BC"/>
  <outline>
    <contour>
      <point x="64" y="272" type="line" smooth="yes"/>
      <point x="77" y="272"/>
      <point x="86" y="281"/>
      <point x="86" y="294" type="curve" smooth="yes"/>
      <point x="86" y="343" type="line" smooth="yes"/>
      <point x="86" y="356"/>
      <point x="77" y="365"/>
      <point x="64" y="365" type="curve" smooth="yes"/>
      <point x="15" y="365" type="line" smooth="yes"/>
      <point x="2" y="365"/>
      <point x="-7" y="356"/>
      <point x="-7" y="343" type="curve" smooth="yes"/>
      <point x="-7" y="294" type="line" smooth="yes"/>
      <point x="-7" y="281"/>
      <point x="2" y="272"/>
      <point x="15" y="272" type="curve" smooth="yes"/>
    </contour>
    <contour>
      <point x="39" y="287" type="move" name="_center"/>
    </contour>
  </outline>
</glyph>
<glyph name="gimelhebrew" format="1">
  <advance width="486"/>
  <unicode hex="05D2"/>
  <outline>
    <contour>
      <point x="434" y="0" type="line" smooth="yes"/>
      <point x="449" y="0"/>
      <point x="462" y="11"/>
      <point x="460" y="25" type="curve" smooth="yes"/>
      <point x="399" y="330" type="line" smooth="yes"/>
      <point x="364" y="505"/>
      <point x="303" y="578"/>
      <point x="134" y="578" type="curve" smooth="yes"/>
      <point x="95" y="578" type="line" smooth="yes"/>
      <point x="81" y="578"/>
      <point x="70" y="567"/>
      <point x="70" y="552" type="curve" smooth="yes"/>
      <point x="70" y="460" type="line" smooth="yes"/>
      <point x="70" y="446"/>
      <point x="81" y="435"/>
      <point x="95" y="435" type="curve" smooth="yes"/>
      <point x="130" y="435" type="line" smooth="yes"/>
      <point x="191" y="435"/>
      <point x="208" y="400"/>
      <point x="224" y="325" type="curve" smooth="yes"/>
      <point x="284" y="25" type="line"/>
      <point x="285" y="11"/>
      <point x="295" y="0"/>
      <point x="309" y="0" type="curve" smooth="yes"/>
    </contour>
    <contour>
      <point x="283" y="91"/>
      <point x="325" y="167"/>
      <point x="335" y="290" type="curve"/>
      <point x="277" y="293" type="line"/>
      <point x="262" y="247"/>
      <point x="221" y="200"/>
      <point x="176" y="178" type="curve" smooth="yes"/>
      <point x="145" y="162"/>
      <point x="82" y="145"/>
      <point x="68" y="140" type="curve" smooth="yes"/>
      <point x="53" y="134"/>
      <point x="47" y="125"/>
      <point x="47" y="115" type="curve" smooth="yes"/>
      <point x="47" y="7" type="line" smooth="yes"/>
      <point x="47" y="-7"/>
      <point x="58" y="-10"/>
      <point x="71" y="-8" type="curve" smooth="yes"/>
      <point x="118" y="1"/>
      <point x="159" y="18"/>
      <point x="212" y="50" type="curve" smooth="yes"/>
    </contour>
    <contour>
      <point x="259" y="0" type="move" name="bottom"/>
    </contour>
    <contour>
      <point x="282" y="520" type="move" name="top"/>
    </contour>
    <contour>
      <point x="22" y="0" type="move" name="bottomleft"/>
    </contour>
    <contour>
      <point x="22" y="520" type="move" name="topleft"/>
    </contour>
    <contour>
      <point x="138" y="260" type="move" name="center"/>
    </contour>
  </outline>
</glyph>
<glyph name="lamedhebrew" format="1">
  <advance width="536"/>
  <unicode hex="05DC"/>
  <outline>
    <contour>
      <point x="234" y="-1" type="line" smooth="yes"/>
      <point x="370" y="37"/>
      <point x="497" y="139"/>
      <point x="497" y="320" type="curve" smooth="yes"/>
      <point x="497" y="482"/>
      <point x="432" y="571"/>
      <point x="254" y="571" type="curve" smooth="yes"/>
      <point x="196" y="571" type="line"/>
      <point x="183" y="571"/>
      <point x="171" y="560"/>
      <point x="171" y="547" type="curve"/>
      <point x="171" y="454" type="line"/>
      <point x="171" y="439"/>
      <point x="182" y="428"/>
      <point x="196" y="428" type="curve"/>
      <point x="219" y="428" type="line"/>
      <point x="299" y="428"/>
      <point x="323" y="397"/>
      <point x="323" y="315" type="curve" smooth="yes"/>
      <point x="323" y="220"/>
      <point x="278" y="181"/>
      <point x="224" y="160" type="curve" smooth="yes"/>
      <point x="192" y="147" type="line" smooth="yes"/>
      <point x="178" y="141"/>
      <point x="167" y="128"/>
      <point x="167" y="115" type="curve" smooth="yes"/>
      <point x="167" y="14" type="line" smooth="yes"/>
      <point x="167" y="-1"/>
      <point x="180" y="-16"/>
      <point x="194" y="-13" type="curve" smooth="yes"/>
    </contour>
    <contour>
      <point x="234" y="571" type="line"/>
      <point x="192" y="571" type="line"/>
      <point x="192" y="685" type="line" smooth="yes"/>
      <point x="192" y="699"/>
      <point x="181" y="710"/>
      <point x="167" y="710" type="curve" smooth="yes"/>
      <point x="59" y="710" type="line" smooth="yes"/>
      <point x="45" y="710"/>
      <point x="34" y="699"/>
      <point x="34" y="685" type="curve" smooth="yes"/>
      <point x="34" y="454" type="line" smooth="yes"/>
      <point x="34" y="439"/>
      <point x="45" y="429"/>
      <point x="59" y="429" type="curve" smooth="yes"/>
      <point x="233" y="428" type="line"/>
    </contour>
    <contour>
      <point x="245" y="0" type="move" name="bottom"/>
    </contour>
    <contour>
      <point x="261" y="520" type="move" name="top"/>
    </contour>
    <contour>
      <point x="38" y="0" type="move" name="bottomleft"/>
    </contour>
    <contour>
      <point x="-14" y="520" type="move" name="topleft"/>
    </contour>
    <contour>
      <point x="176" y="260" type="move" name="center"/>
    </contour>
  </outline>
</glyph>
<glyph name="memhebrew" format="1">
  <advance width="680"/>
  <unicode hex="05DE"/>
  <outline>
    <contour>
      <point x="420" y="429"/>
      <point x="458" y="390"/>
      <point x="458" y="319" type="curve" smooth="yes"/>
      <point x="458" y="136" type="line"/>
      <point x="330" y="136" type="line" smooth="yes"/>
      <point x="315" y="136"/>
      <point x="304" y="125"/>
      <point x="304" y="111" type="curve" smooth="yes"/>
      <point x="304" y="25" type="line" smooth="yes"/>
      <point x="304" y="11"/>
      <point x="315" y="0"/>
      <point x="330" y="0" type="curve" smooth="yes"/>
      <point x="602" y="0" type="line" smooth="yes"/>
      <point x="616" y="0"/>
      <point x="627" y="11"/>
      <point x="627" y="25" type="curve" smooth="yes"/>
      <point x="627" y="327" type="line" smooth="yes"/>
      <point x="627" y="496"/>
      <point x="527" y="571"/>
      <point x="394" y="571" type="curve"/>
      <point x="72" y="571" type="line" smooth="yes"/>
      <point x="58" y="571"/>
      <point x="47" y="560"/>
      <point x="47" y="546" type="curve" smooth="yes"/>
      <point x="47" y="454" type="line" smooth="yes"/>
      <point x="47" y="439"/>
      <point x="58" y="428"/>
      <point x="72" y="428" type="curve" smooth="yes"/>
      <point x="368" y="429" type="line"/>
    </contour>
    <contour>
      <point x="179" y="0" type="line" smooth="yes"/>
      <point x="193" y="0"/>
      <point x="205" y="11"/>
      <point x="205" y="26" type="curve"/>
      <point x="298" y="460" type="line" smooth="yes"/>
      <point x="301" y="474"/>
      <point x="288" y="489"/>
      <point x="274" y="490" type="curve" smooth="yes"/>
      <point x="174" y="491" type="line" smooth="yes"/>
      <point x="160" y="491"/>
      <point x="151" y="480"/>
      <point x="148" y="467" type="curve" smooth="yes"/>
      <point x="40" y="26" type="line" smooth="yes"/>
      <point x="37" y="11"/>
      <point x="50" y="0"/>
      <point x="64" y="0" type="curve" smooth="yes"/>
    </contour>
    <contour>
      <point x="343" y="0" type="move" name="bottom"/>
    </contour>
    <contour>
      <point x="338" y="520" type="move" name="top"/>
    </contour>
    <contour>
      <point x="16" y="0" type="move" name="bottomleft"/>
    </contour>
    <contour>
      <point x="16" y="520" type="move" name="topleft"/>
    </contour>
    <contour>
      <point x="355" y="240" type="move" name="center"/>
    </contour>
  </outline>
</glyph>
<glyph name="nunhebrew" format="1">
  <advance width="444"/>
  <unicode hex="05E0"/>
  <outline>
    <contour>
      <point x="362" y="0" type="line" smooth="yes"/>
      <point x="376" y="0"/>
      <point x="387" y="9"/>
      <point x="387" y="24" type="curve" smooth="yes"/>
      <point x="387" y="136" type="line"/>
      <point x="62" y="136" type="line" smooth="yes"/>
      <point x="48" y="136"/>
      <point x="37" y="125"/>
      <point x="37" y="111" type="curve" smooth="yes"/>
      <point x="37" y="25" type="line" smooth="yes"/>
      <point x="37" y="11"/>
      <point x="48" y="0"/>
      <point x="62" y="0" type="curve" smooth="yes"/>
    </contour>
    <contour>
      <point x="384" y="0" type="line" smooth="yes"/>
      <point x="399" y="0"/>
      <point x="410" y="11"/>
      <point x="410" y="25" type="curve" smooth="yes"/>
      <point x="396" y="330" type="line" smooth="yes"/>
      <point x="389" y="501"/>
      <point x="319" y="578"/>
      <point x="142" y="578" type="curve" smooth="yes"/>
      <point x="87" y="578" type="line" smooth="yes"/>
      <point x="73" y="578"/>
      <point x="62" y="567"/>
      <point x="62" y="552" type="curve" smooth="yes"/>
      <point x="62" y="468" type="line" smooth="yes"/>
      <point x="62" y="454"/>
      <point x="73" y="443"/>
      <point x="87" y="443" type="curve" smooth="yes"/>
      <point x="138" y="443" type="line" smooth="yes"/>
      <point x="202" y="443"/>
      <point x="217" y="405"/>
      <point x="220" y="333" type="curve" smooth="yes"/>
      <point x="234" y="25" type="line"/>
      <point x="235" y="11"/>
      <point x="245" y="0"/>
      <point x="259" y="0" type="curve" smooth="yes"/>
    </contour>
    <contour>
      <point x="222" y="0" type="move" name="bottom"/>
    </contour>
    <contour>
      <point x="218" y="520" type="move" name="top"/>
    </contour>
    <contour>
      <point x="20" y="0" type="move" name="bottomleft"/>
    </contour>
    <contour>
      <point x="20" y="520" type="move" name="topleft"/>
    </contour>
    <contour>
      <point x="133" y="260" type="move" name="center"/>
    </contour>
  </outline>
</glyph>
<glyph name="samekhhebrew" format="1">
  <advance width="650"/>
  <unicode hex="05E1"/>
  <outline>
    <contour>
      <point x="530" y="-10"/>
      <point x="602" y="83"/>
      <point x="608" y="235" type="curve" smooth="yes"/>
      <point x="609" y="255"/>
      <point x="609" y="310"/>
      <point x="608" y="330" type="curve" smooth="yes"/>
      <point x="601" y="479"/>
      <point x="534" y="571"/>
      <point x="334" y="571" type="curve"/>
      <point x="78" y="571" type="line" smooth="yes"/>
      <point x="64" y="571"/>
      <point x="53" y="560"/>
      <point x="53" y="546" type="curve" smooth="yes"/>
      <point x="53" y="241" type="line" smooth="yes"/>
      <point x="53" y="85"/>
      <point x="140" y="-10"/>
      <point x="325" y="-10" type="curve" smooth="yes"/>
    </contour>
    <contour>
      <point x="251" y="133"/>
      <point x="208" y="167"/>
      <point x="208" y="244" type="curve" smooth="yes"/>
      <point x="208" y="435" type="line"/>
      <point x="329" y="435" type="line" smooth="yes"/>
      <point x="410" y="435"/>
      <point x="444" y="398"/>
      <point x="447" y="325" type="curve" smooth="yes"/>
      <point x="448" y="305"/>
      <point x="448" y="260"/>
      <point x="447" y="240" type="curve" smooth="yes"/>
      <point x="444" y="164"/>
      <point x="416" y="133"/>
      <point x="324" y="133" type="curve" smooth="yes"/>
    </contour>
    <contour>
      <point x="312" y="0" type="move" name="bottom"/>
    </contour>
    <contour>
      <point x="312" y="520" type="move" name="top"/>
    </contour>
    <contour>
      <point x="20" y="0" type="move" name="bottomleft"/>
    </contour>
    <contour>
      <point x="20" y="520" type="move" name="topleft"/>
    </contour>
    <contour>
      <point x="321" y="260" type="move" name="center"/>
    </contour>
  </outline>
</glyph>
<glyph name="finaltsadihebrew" format="1">
  <advance width="552"/>
  <unicode hex="05E5"/>
  <outline>
    <contour>
      <point x="419" y="-124" type="line" smooth="yes"/>
      <point x="430" y="-124"/>
      <point x="440" y="-115"/>
      <point x="440" y="-103" type="curve" smooth="yes"/>
      <point x="440" y="-100"/>
      <point x="439" y="-96"/>
      <point x="436" y="-89" type="curve" smooth="yes"/>
      <point x="336" y="169" type="line"/>
      <point x="438" y="207"/>
      <point x="522" y="291"/>
      <point x="522" y="430" type="curve" smooth="yes"/>
      <point x="522" y="544" type="line" smooth="yes"/>
      <point x="522" y="559"/>
      <point x="511" y="571"/>
      <point x="497" y="571" type="curve" smooth="yes"/>
      <point x="392" y="571" type="line" smooth="yes"/>
      <point x="377" y="571"/>
      <point x="366" y="560"/>
      <point x="366" y="544" type="curve" smooth="yes"/>
      <point x="366" y="438" type="line" smooth="yes"/>
      <point x="366" y="368"/>
      <point x="334" y="327"/>
      <point x="282" y="312" type="curve"/>
      <point x="191" y="547" type="line"/>
      <point x="186" y="561"/>
      <point x="177" y="571"/>
      <point x="160" y="571" type="curve" smooth="yes"/>
      <point x="39" y="571" type="line" smooth="yes"/>
      <point x="27" y="571"/>
      <point x="17" y="561"/>
      <point x="17" y="550" type="curve" smooth="yes"/>
      <point x="17" y="547"/>
      <point x="18" y="544"/>
      <point x="20" y="536" type="curve" smooth="yes"/>
      <point x="268" y="-103" type="line" smooth="yes"/>
      <point x="273" y="-114"/>
      <point x="281" y="-124"/>
      <point x="299" y="-124" type="curve" smooth="yes"/>
    </contour>
    <contour>
      <point x="276" y="0" type="move" name="bottom"/>
    </contour>
    <contour>
      <point x="276" y="520" type="move" name="top"/>
    </contour>
    <contour>
      <point x="20" y="0" type="move" name="bottomleft"/>
    </contour>
    <contour>
      <point x="20" y="520" type="move" name="topleft"/>
    </contour>
    <contour>
      <point x="276" y="260" type="move" name="center"/>
    </contour>
  </outline>
</glyph>
<glyph name="reshhebrew" format="1">
  <advance width="553"/>
  <unicode hex="05E8"/>
  <outline>
    <contour>
      <point x="474" y="0" type="line" smooth="yes"/>
      <point x="488" y="0"/>
      <point x="499" y="11"/>
      <point x="499" y="25" type="curve" smooth="yes"/>
      <point x="499" y="327" type="line" smooth="yes"/>
      <point x="499" y="505"/>
      <point x="403" y="571"/>
      <point x="223" y="571" type="curve" smooth="yes"/>
      <point x="65" y="571" type="line"/>
      <point x="51" y="571"/>
      <point x="40" y="560"/>
      <point x="40" y="546" type="curve" smooth="yes"/>
      <point x="40" y="460" type="line" smooth="yes"/>
      <point x="40" y="446"/>
      <point x="51" y="435"/>
      <point x="65" y="435" type="curve" smooth="yes"/>
      <point x="217" y="435" type="line" smooth="yes"/>
      <point x="295" y="435"/>
      <point x="330" y="395"/>
      <point x="330" y="321" type="curve" smooth="yes"/>
      <point x="330" y="25" type="line" smooth="yes"/>
      <point x="330" y="10"/>
      <point x="341" y="0"/>
      <point x="356" y="0" type="curve" smooth="yes"/>
    </contour>
    <contour>
      <point x="410" y="0" type="move" name="bottom"/>
    </contour>
    <contour>
      <point x="290" y="520" type="move" name="top"/>
    </contour>
    <contour>
      <point x="47" y="0" type="move" name="bottomleft"/>
    </contour>
    <contour>
      <point x="47" y="520" type="move" name="topleft"/>
    </contour>
    <contour>
      <point x="203" y="260" type="move" name="center"/>
    </contour>
  </outline>
</glyph>
<glyph name="shinhebrew" format="1">
  <advance width="767"/>
  <unicode hex="05E9"/>
  <outline>
    <contour>
      <point x="359" y="127" type="line"/>
      <point x="275" y="127"/>
      <point x="213" y="190"/>
      <point x="213" y="301" type="curve"/>
      <point x="212" y="546" type="line" smooth="yes"/>
      <point x="212" y="561"/>
      <point x="201" y="571"/>
      <point x="186" y="571" type="curve" smooth="yes"/>
      <point x="81" y="571" type="line" smooth="yes"/>
      <point x="67" y="571"/>
      <point x="56" y="560"/>
      <point x="56" y="546" type="curve" smooth="yes"/>
      <point x="56" y="224" type="line" smooth="yes"/>
      <point x="56" y="98"/>
      <point x="153" y="-8"/>
      <point x="319" y="-8" type="curve" smooth="yes"/>
      <point x="414" y="-8" type="line" smooth="yes"/>
      <point x="583" y="-10"/>
      <point x="717" y="104"/>
      <point x="717" y="284" type="curve" smooth="yes"/>
      <point x="717" y="546" type="line" smooth="yes"/>
      <point x="717" y="560"/>
      <point x="706" y="571"/>
      <point x="692" y="571" type="curve" smooth="yes"/>
      <point x="587" y="571" type="line" smooth="yes"/>
      <point x="572" y="571"/>
      <point x="561" y="561"/>
      <point x="561" y="546" type="curve" smooth="yes"/>
      <point x="561" y="289" type="line" smooth="yes"/>
      <point x="561" y="196"/>
      <point x="487" y="126"/>
      <point x="383" y="127" type="curve"/>
    </contour>
    <contour>
      <point x="367" y="190"/>
      <point x="466" y="283"/>
      <point x="466" y="450" type="curve" smooth="yes"/>
      <point x="466" y="544" type="line" smooth="yes"/>
      <point x="466" y="559"/>
      <point x="455" y="571"/>
      <point x="441" y="571" type="curve" smooth="yes"/>
      <point x="336" y="571" type="line" smooth="yes"/>
      <point x="322" y="571"/>
      <point x="311" y="560"/>
      <point x="311" y="544" type="curve" smooth="yes"/>
      <point x="311" y="452" type="line" smooth="yes"/>
      <point x="311" y="360"/>
      <point x="284" y="306"/>
      <point x="196" y="305" type="curve"/>
      <point x="196" y="191" type="line"/>
    </contour>
    <contour>
      <point x="383" y="0" type="move" name="bottom"/>
    </contour>
    <contour>
      <point x="412" y="520" type="move" name="top"/>
    </contour>
    <contour>
      <point x="22" y="0" type="move" name="bottomleft"/>
    </contour>
    <contour>
      <point x="-7" y="520" type="move" name="topleft"/>
    </contour>
    <contour>
      <point x="719" y="520" type="move" name="topright"/>
    </contour>
    <contour>
      <point x="494" y="260" type="move" name="center"/>
    </contour>
  </outline>
</glyph>
<glyph name="quotedblleft" format="1">
  <advance width="518"/>
  <unicode hex="201C"/>
  <outline>
    <contour>
      <point x="484" y="686" type="line" name="hr00" smooth="yes"/>
      <point x="484" y="688"/>
      <point x="484" y="686"/>
      <point x="484" y="688" type="curve" smooth="yes"/>
      <point x="484" y="700"/>
      <point x="474" y="710"/>
      <point x="462" y="710" type="curve" smooth="yes"/>
      <point x="387" y="710" type="line" smooth="yes"/>
      <point x="361" y="710"/>
      <point x="349" y="691"/>
      <point x="344" y="678" type="curve" smooth="yes"/>
      <point x="266" y="479" type="line" smooth="yes"/>
      <point x="265" y="476"/>
      <point x="265" y="474"/>
      <point x="265" y="472" type="curve" smooth="yes"/>
      <point x="265" y="460"/>
      <point x="275" y="450"/>
      <point x="287" y="450" type="curve" smooth="yes"/>
      <point x="410" y="450" type="line" smooth="yes"/>
      <point x="437" y="450"/>
      <point x="450" y="471"/>
      <point x="453" y="489" type="curve" smooth="yes"/>
    </contour>
    <contour>
      <point x="249" y="686" type="line" smooth="yes"/>
      <point x="249" y="688"/>
      <point x="249" y="686"/>
      <point x="249" y="688" type="curve" smooth="yes"/>
      <point x="249" y="700"/>
      <point x="239" y="710"/>
      <point x="227" y="710" type="curve" smooth="yes"/>
      <point x="152" y="710" type="line" smooth="yes"/>
      <point x="126" y="710"/>
      <point x="114" y="691"/>
      <point x="109" y="678" type="curve" smooth="yes"/>
      <point x="31" y="479" type="line" smooth="yes"/>
      <point x="30" y="476"/>
      <point x="30" y="474"/>
      <point x="30" y="472" type="curve" smooth="yes"/>
      <point x="30" y="460"/>
      <point x="40" y="450"/>
      <point x="52" y="450" type="curve" smooth="yes"/>
      <point x="175" y="450" type="line" smooth="yes"/>
      <point x="202" y="450"/>
      <point x="215" y="471"/>
      <point x="218" y="489" type="curve" smooth="yes"/>
    </contour>
  </outline>
</glyph>
<glyph name="fraction" format="1">
  <advance width="160"/>
  <unicode hex="2044"/>
  <outline>
    <contour>
      <point x="-227" y="31" type="line" name="hr00" smooth="yes"/>
      <point x="-230" y="27"/>
      <point x="-231" y="22"/>
      <point x="-231" y="20" type="curve" smooth="yes"/>
      <point x="-231" y="8"/>
      <point x="-221" y="0"/>
      <point x="-207" y="0" type="curve" smooth="yes"/>
      <point x="-145" y="0" type="line" smooth="yes"/>
      <point x="-126" y="0"/>
      <point x="-118" y="7"/>
      <point x="-109" y="19" type="curve" smooth="yes"/>
      <point x="385" y="669" type="line" smooth="yes"/>
      <point x="388" y="673"/>
      <point x="389" y="678"/>
      <point x="389" y="680" type="curve" smooth="yes"/>
      <point x="389" y="692"/>
      <point x="379" y="700"/>
      <point x="365" y="700" type="curve" smooth="yes"/>
      <point x="303" y="700" type="line" smooth="yes"/>
      <point x="284" y="700"/>
      <point x="276" y="693"/>
      <point x="267" y="681" type="curve" smooth="yes"/>
    </contour>
  </outline>
</glyph>
<glyph name="zeroinferior" format="1">
  <advance width="381"/>
  <unicode hex="2080"/>
  <outline>
    <contour>
      <point x="347" y="43" type="curve" name="hr00" smooth="yes"/>
      <point x="341" y="122"/>
      <point x="295" y="185"/>
      <point x="190" y="185" type="curve" smooth="yes"/>
      <point x="85" y="185"/>
      <point x="39" y="122"/>
      <point x="33" y="43" type="curve" smooth="yes"/>
      <point x="31" y="15"/>
      <point x="31" y="-7"/>
      <point x="33" y="-33" type="curve" smooth="yes"/>
      <point x="39" y="-112"/>
      <point x="85" y="-175"/>
      <point x="190" y="-175" type="curve" smooth="yes"/>
      <point x="295" y="-175"/>
      <point x="343" y="-112"/>
      <point x="347" y="-33" type="curve"/>
      <point x="349" y="-8"/>
      <point x="349" y="15"/>
    </contour>
    <contour>
      <point x="149" y="-28" type="curve" smooth="yes"/>
      <point x="147" y="-5"/>
      <point x="147" y="15"/>
      <point x="149" y="38" type="curve" smooth="yes"/>
      <point x="152" y="73"/>
      <point x="161" y="90"/>
      <point x="190" y="90" type="curve" smooth="yes"/>
      <point x="219" y="90"/>
      <point x="228" y="73"/>
      <point x="231" y="38" type="curve"/>
      <point x="233" y="15"/>
      <point x="233" y="-5"/>
      <point x="231" y="-28" type="curve" smooth="yes"/>
      <point x="228" y="-63"/>
      <point x="219" y="-80"/>
      <point x="190" y="-80" type="curve" smooth="yes"/>
      <point x="161" y="-80"/>
      <point x="152" y="-63"/>
    </contour>
  </outline>
</glyph>
<glyph name="twoinferior" format="1">
  <advance width="358"/>
  <unicode hex="2082"/>
  <outline>
    <contour>
      <point x="27" y="-150" type="line" name="hr00" smooth="yes"/>
      <point x="27" y="-163"/>
      <point x="36" y="-170"/>
      <point x="49" y="-170" type="curve" smooth="yes"/>
      <point x="303" y="-170" type="line" smooth="yes"/>
      <point x="316" y="-170"/>
      <point x="325" y="-161"/>
      <point x="325" y="-148" type="curve" smooth="yes"/>
      <point x="325" y="-97" type="line" smooth="yes"/>
      <point x="325" y="-84"/>
      <point x="316" y="-75"/>
      <point x="303" y="-75" type="curve" smooth="yes"/>
      <point x="212" y="-75" type="line"/>
      <point x="293" y="-15"/>
      <point x="318" y="8"/>
      <point x="318" y="68" type="curve" smooth="yes"/>
      <point x="318" y="136"/>
      <point x="263" y="185"/>
      <point x="177" y="185" type="curve" smooth="yes"/>
      <point x="94" y="185"/>
      <point x="41" y="134"/>
      <point x="37" y="73" type="curve" smooth="yes"/>
      <point x="36" y="61"/>
      <point x="43" y="54"/>
      <point x="55" y="54" type="curve" smooth="yes"/>
      <point x="126" y="54" type="line" smooth="yes"/>
      <point x="136" y="54"/>
      <point x="145" y="57"/>
      <point x="153" y="72" type="curve" smooth="yes"/>
      <point x="159" y="83"/>
      <point x="167" y="90"/>
      <point x="177" y="90" type="curve" smooth="yes"/>
      <point x="188" y="90"/>
      <point x="202" y="82"/>
      <point x="202" y="63" type="curve" smooth="yes"/>
      <point x="202" y="32"/>
      <point x="171" y="16"/>
      <point x="52" y="-73" type="curve" smooth="yes"/>
      <point x="32" y="-88"/>
      <point x="27" y="-95"/>
      <point x="27" y="-105" type="curve" smooth="yes"/>
    </contour>
  </outline>
</glyph>
<glyph name="fiveinferior" format="1">
  <advance width="354"/>
  <unicode hex="2085"/>
  <outline>
    <contour>
      <point x="306" y="158" type="line" smooth="yes"/>
      <point x="306" y="171"/>
      <point x="297" y="180"/>
      <point x="284" y="180" type="curve" smooth="yes"/>
      <point x="86" y="180" type="line"/>
      <point x="72" y="179"/>
      <point x="62" y="167"/>
      <point x="61" y="153" type="curve" smooth="yes"/>
      <point x="45" y="-11" type="line" smooth="yes"/>
      <point x="44" y="-25"/>
      <point x="53" y="-37"/>
      <point x="67" y="-37" type="curve" smooth="yes"/>
      <point x="141" y="-37" type="line" smooth="yes"/>
      <point x="154" y="-37"/>
      <point x="155" y="-24"/>
      <point x="180" y="-24" type="curve" name="hr01" smooth="yes"/>
      <point x="199" y="-24"/>
      <point x="212" y="-37"/>
      <point x="212" y="-52" type="curve" smooth="yes"/>
      <point x="212" y="-67"/>
      <point x="199" y="-80"/>
      <point x="175" y="-80" type="curve" smooth="yes"/>
      <point x="139" y="-80"/>
      <point x="146" y="-62"/>
      <point x="120" y="-62" type="curve" name="hr02" smooth="yes"/>
      <point x="43" y="-62" type="line" smooth="yes"/>
      <point x="37" y="-62"/>
      <point x="26" y="-68"/>
      <point x="26" y="-81" type="curve" smooth="yes"/>
      <point x="26" y="-113"/>
      <point x="56" y="-175"/>
      <point x="175" y="-175" type="curve" smooth="yes"/>
      <point x="273" y="-175"/>
      <point x="326" y="-118"/>
      <point x="326" y="-54" type="curve" smooth="yes"/>
      <point x="326" y="13"/>
      <point x="268" y="58"/>
      <point x="202" y="58" type="curve" smooth="yes"/>
      <point x="170" y="58"/>
      <point x="160" y="54"/>
      <point x="143" y="45" type="curve"/>
      <point x="147" y="85" type="line"/>
      <point x="284" y="85" type="line" smooth="yes"/>
      <point x="297" y="85"/>
      <point x="306" y="94"/>
      <point x="306" y="107" type="curve" smooth="yes"/>
    </contour>
  </outline>
</glyph>
<glyph name="seveninferior" format="1">
  <advance width="322"/>
  <unicode hex="2087"/>
  <outline>
    <contour>
      <point x="300" y="158" type="line" name="hr00" smooth="yes"/>
      <point x="300" y="171"/>
      <point x="291" y="180"/>
      <point x="278" y="180" type="curve" smooth="yes"/>
      <point x="43" y="180" type="line" smooth="yes"/>
      <point x="30" y="180"/>
      <point x="21" y="171"/>
      <point x="21" y="158" type="curve" smooth="yes"/>
      <point x="21" y="107" type="line" smooth="yes"/>
      <point x="21" y="94"/>
      <point x="30" y="85"/>
      <point x="43" y="85" type="curve" smooth="yes"/>
      <point x="178" y="85" type="line"/>
      <point x="79" y="-134" type="line" smooth="yes"/>
      <point x="77" y="-138"/>
      <point x="75" y="-146"/>
      <point x="75" y="-149" type="curve" smooth="yes"/>
      <point x="75" y="-161"/>
      <point x="82" y="-170"/>
      <point x="95" y="-170" type="curve" smooth="yes"/>
      <point x="167" y="-170" type="line" smooth="yes"/>
      <point x="181" y="-170"/>
      <point x="188" y="-158"/>
      <point x="193" y="-146" type="curve" smooth="yes"/>
      <point x="295" y="80" type="line" smooth="yes"/>
      <point x="299" y="88"/>
      <point x="300" y="94"/>
      <point x="300" y="103" type="curve" smooth="yes"/>
    </contour>
  </outline>
</glyph>
<glyph name="eightinferior" format="1">
  <advance width="368"/>
  <unicode hex="2088"/>
  <outline>
    <contour>
      <point x="338" y="-67" type="curve" smooth="yes"/>
      <point x="338" y="-32"/>
      <point x="322" y="-3"/>
      <point x="294" y="11" type="curve"/>
      <point x="315" y="25"/>
      <point x="326" y="49"/>
      <point x="326" y="79" type="curve" name="hr01" smooth="yes"/>
      <point x="326" y="129"/>
      <point x="289" y="185"/>
      <point x="184" y="185" type="curve" smooth="yes"/>
      <point x="79" y="185"/>
      <point x="42" y="129"/>
      <point x="42" y="79" type="curve" smooth="yes"/>
      <point x="42" y="49"/>
      <point x="53" y="25"/>
      <point x="74" y="11" type="curve"/>
      <point x="46" y="-3"/>
      <point x="30" y="-32"/>
      <point x="30" y="-67" type="curve" name="hr02" smooth="yes"/>
      <point x="30" y="-121"/>
      <point x="76" y="-175"/>
      <point x="184" y="-175" type="curve" smooth="yes"/>
      <point x="292" y="-175"/>
      <point x="338" y="-121"/>
    </contour>
    <contour>
      <point x="229" y="-63" type="curve" smooth="yes"/>
      <point x="229" y="-85"/>
      <point x="208" y="-95"/>
      <point x="184" y="-95" type="curve" smooth="yes"/>
      <point x="160" y="-95"/>
      <point x="139" y="-85"/>
      <point x="139" y="-63" type="curve" smooth="yes"/>
      <point x="139" y="-42"/>
      <point x="158" y="-31"/>
      <point x="184" y="-31" type="curve" smooth="yes"/>
      <point x="210" y="-31"/>
      <point x="229" y="-42"/>
    </contour>
    <contour>
      <point x="220" y="76" type="curve" smooth="yes"/>
      <point x="220" y="57"/>
      <point x="204" y="47"/>
      <point x="184" y="47" type="curve" smooth="yes"/>
      <point x="166" y="47"/>
      <point x="147" y="57"/>
      <point x="147" y="76" type="curve" smooth="yes"/>
      <point x="147" y="94"/>
      <point x="164" y="105"/>
      <point x="184" y="105" type="curve" smooth="yes"/>
      <point x="204" y="105"/>
      <point x="220" y="94"/>
    </contour>
  </outline>
</glyph>
<glyph name="parenrightinferior" format="1">
  <advance width="267"/>
  <unicode hex="208E"/>
  <outline>
    <contour>
      <point x="57" y="-124" type="curve" smooth="yes"/>
      <point x="43" y="-128"/>
      <point x="30" y="-130"/>
      <point x="30" y="-145" type="curve" smooth="yes"/>
      <point x="30" y="-203" type="line" smooth="yes"/>
      <point x="30" y="-218"/>
      <point x="39" y="-225"/>
      <point x="54" y="-225" type="curve" smooth="yes"/>
      <point x="121" y="-225"/>
      <point x="238" y="-177"/>
      <point x="238" y="11" type="curve" smooth="yes"/>
      <point x="238" y="199"/>
      <point x="121" y="245"/>
      <point x="54" y="245" type="curve" smooth="yes"/>
      <point x="39" y="245"/>
      <point x="30" y="238"/>
      <point x="30" y="223" type="curve" smooth="yes"/>
      <point x="30" y="165" type="line" smooth="yes"/>
      <point x="30" y="150"/>
      <point x="43" y="148"/>
      <point x="57" y="144" type="curve" smooth="yes"/>
      <point x="107" y="131"/>
      <point x="128" y="87"/>
      <point x="128" y="11" type="curve" name="hr01" smooth="yes"/>
      <point x="128" y="-65"/>
      <point x="107" y="-111"/>
    </contour>
  </outline>
</glyph>
<glyph name="sheqel" format="1">
  <advance width="984"/>
  <unicode hex="20AA"/>
  <outline>
    <contour>
      <point x="653" y="0" type="line"/>
      <point x="836" y="0"/>
      <point x="930" y="68"/>
      <point x="930" y="251" type="curve" smooth="yes"/>
      <point x="930" y="546" type="line" smooth="yes"/>
      <point x="930" y="560"/>
      <point x="919" y="571"/>
      <point x="905" y="571" type="curve" smooth="yes"/>
      <point x="786" y="571" type="line" smooth="yes"/>
      <point x="772" y="571"/>
      <point x="761" y="561"/>
      <point x="761" y="546" type="curve" smooth="yes"/>
      <point x="761" y="250" type="line" smooth="yes"/>
      <point x="761" y="176"/>
      <point x="726" y="136"/>
      <point x="648" y="136" type="curve" smooth="yes"/>
      <point x="460" y="136" type="line"/>
      <point x="460" y="353" type="line" smooth="yes"/>
      <point x="460" y="367"/>
      <point x="449" y="378"/>
      <point x="435" y="378" type="curve" smooth="yes"/>
      <point x="316" y="378" type="line" smooth="yes"/>
      <point x="302" y="378"/>
      <point x="291" y="367"/>
      <point x="291" y="353" type="curve" smooth="yes"/>
      <point x="291" y="25" type="line" smooth="yes"/>
      <point x="291" y="11"/>
      <point x="302" y="0"/>
      <point x="316" y="0" type="curve"/>
    </contour>
    <contour>
      <point x="204" y="0" type="line" smooth="yes"/>
      <point x="218" y="0"/>
      <point x="229" y="11"/>
      <point x="229" y="25" type="curve" smooth="yes"/>
      <point x="229" y="435" type="line"/>
      <point x="417" y="435" type="line" smooth="yes"/>
      <point x="495" y="435"/>
      <point x="530" y="395"/>
      <point x="530" y="321" type="curve" smooth="yes"/>
      <point x="530" y="218" type="line" smooth="yes"/>
      <point x="530" y="204"/>
      <point x="541" y="193"/>
      <point x="555" y="193" type="curve" smooth="yes"/>
      <point x="674" y="193" type="line" smooth="yes"/>
      <point x="688" y="193"/>
      <point x="699" y="204"/>
      <point x="699" y="219" type="curve" smooth="yes"/>
      <point x="699" y="320" type="line" smooth="yes"/>
      <point x="699" y="503"/>
      <point x="605" y="571"/>
      <point x="422" y="571" type="curve" smooth="yes"/>
      <point x="85" y="571" type="line" smooth="yes"/>
      <point x="71" y="571"/>
      <point x="60" y="560"/>
      <point x="60" y="546" type="curve" smooth="yes"/>
      <point x="60" y="25" type="line" smooth="yes"/>
      <point x="60" y="11"/>
      <point x="71" y="0"/>
      <point x="85" y="0" type="curve" smooth="yes"/>
    </contour>
  </outline>
</glyph>
<glyph name="trademark" format="1">
  <advance width="659"/>
  <unicode hex="2122"/>
  <outline>
    <contour>
      <point x="41" y="636" type="line" name="hr00" smooth="yes"/>
      <point x="41" y="623"/>
      <point x="50" y="614"/>
      <point x="63" y="614" type="curve" smooth="yes"/>
      <point x="115" y="614" type="line"/>
      <point x="115" y="456" type="line" smooth="yes"/>
      <point x="115" y="443"/>
      <point x="124" y="434"/>
      <point x="137" y="434" type="curve" smooth="yes"/>
      <point x="181" y="434" type="line" smooth="yes"/>
      <point x="194" y="434"/>
      <point x="203" y="443"/>
      <point x="203" y="456" type="curve" smooth="yes"/>
      <point x="203" y="614" type="line"/>
      <point x="255" y="614" type="line" smooth="yes"/>
      <point x="268" y="614"/>
      <point x="277" y="623"/>
      <point x="277" y="636" type="curve" smooth="yes"/>
      <point x="277" y="678" type="line" smooth="yes"/>
      <point x="277" y="691"/>
      <point x="268" y="700"/>
      <point x="255" y="700" type="curve" smooth="yes"/>
      <point x="63" y="700" type="line" smooth="yes"/>
      <point x="50" y="700"/>
      <point x="41" y="691"/>
      <point x="41" y="678" type="curve" smooth="yes"/>
    </contour>
    <contour>
      <point x="451" y="597" type="line"/>
      <point x="400" y="679" type="line" smooth="yes"/>
      <point x="395" y="687"/>
      <point x="387" y="700"/>
      <point x="373" y="700" type="curve" smooth="yes"/>
      <point x="329" y="700" type="line" smooth="yes"/>
      <point x="316" y="700"/>
      <point x="307" y="691"/>
      <point x="307" y="678" type="curve" smooth="yes"/>
      <point x="307" y="456" type="line" smooth="yes"/>
      <point x="307" y="443"/>
      <point x="316" y="434"/>
      <point x="329" y="434" type="curve" smooth="yes"/>
      <point x="373" y="434" type="line" smooth="yes"/>
      <point x="386" y="434"/>
      <point x="395" y="443"/>
      <point x="395" y="456" type="curve" smooth="yes"/>
      <point x="395" y="549" type="line"/>
      <point x="411" y="522" type="line" smooth="yes"/>
      <point x="418" y="511"/>
      <point x="425" y="498"/>
      <point x="437" y="498" type="curve" smooth="yes"/>
      <point x="465" y="498" type="line" smooth="yes"/>
      <point x="477" y="498"/>
      <point x="484" y="511"/>
      <point x="491" y="522" type="curve" smooth="yes"/>
      <point x="507" y="549" type="line"/>
      <point x="507" y="456" type="line" smooth="yes"/>
      <point x="507" y="443"/>
      <point x="516" y="434"/>
      <point x="529" y="434" type="curve" smooth="yes"/>
      <point x="573" y="434" type="line" smooth="yes"/>
      <point x="586" y="434"/>
      <point x="595" y="443"/>
      <point x="595" y="456" type="curve" smooth="yes"/>
      <point x="595" y="678" type="line" smooth="yes"/>
      <point x="595" y="691"/>
      <point x="586" y="700"/>
      <point x="573" y="700" type="curve" smooth="yes"/>
      <point x="529" y="700" type="line" smooth="yes"/>
      <point x="515" y="700"/>
      <point x="507" y="687"/>
      <point x="502" y="679" type="curve" smooth="yes"/>
    </contour>
  </outline>
</glyph>
<glyph name="uni2206" format="1">
  <advance width="708"/>
  <unicode hex="2206"/>
  <outline>
    <contour>
      <point x="296" y="660" type="line" name="hr00" smooth="yes"/>
      <point x="269" y="660"/>
      <point x="257" y="641"/>
      <point x="251" y="627" type="curve" smooth="yes"/>
      <point x="33" y="102" type="line" smooth="yes"/>
      <point x="30" y="94"/>
      <point x="27" y="90"/>
      <point x="27" y="72" type="curve" smooth="yes"/>
      <point x="27" y="27" type="line" smooth="yes"/>
      <point x="27" y="12"/>
      <point x="39" y="0"/>
      <point x="54" y="0" type="curve" smooth="yes"/>
      <point x="654" y="0" type="line" smooth="yes"/>
      <point x="669" y="0"/>
      <point x="681" y="12"/>
      <point x="681" y="27" type="curve" smooth="yes"/>
      <point x="681" y="72" type="line" smooth="yes"/>
      <point x="681" y="90"/>
      <point x="678" y="94"/>
      <point x="675" y="102" type="curve" smooth="yes"/>
      <point x="457" y="627" type="line" smooth="yes"/>
      <point x="451" y="641"/>
      <point x="439" y="660"/>
      <point x="412" y="660" type="curve" smooth="yes"/>
    </contour>
    <contour>
      <point x="227" y="155" type="line"/>
      <point x="354" y="461" type="line"/>
      <point x="481" y="155" type="line"/>
    </contour>
  </outline>
</glyph>
<glyph name="product" format="1">
  <advance width="703"/>
  <unicode hex="220F"/>
  <outline>
    <contour>
      <point x="637" y="673" type="line" name="hr00" smooth="yes"/>
      <point x="637" y="688"/>
      <point x="625" y="700"/>
      <point x="610" y="700" type="curve" smooth="yes"/>
      <point x="93" y="700" type="line" smooth="yes"/>
      <point x="78" y="700"/>
      <point x="66" y="688"/>
      <point x="66" y="673" type="curve" smooth="yes"/>
      <point x="66" y="-173" type="line" smooth="yes"/>
      <point x="66" y="-188"/>
      <point x="78" y="-200"/>
      <point x="93" y="-200" type="curve" smooth="yes"/>
      <point x="219" y="-200" type="line" smooth="yes"/>
      <point x="234" y="-200"/>
      <point x="246" y="-188"/>
      <point x="246" y="-173" type="curve" smooth="yes"/>
      <point x="246" y="545" type="line"/>
      <point x="457" y="545" type="line"/>
      <point x="457" y="-173" type="line" smooth="yes"/>
      <point x="457" y="-188"/>
      <point x="469" y="-200"/>
      <point x="484" y="-200" type="curve" smooth="yes"/>
      <point x="610" y="-200" type="line" smooth="yes"/>
      <point x="625" y="-200"/>
      <point x="637" y="-188"/>
      <point x="637" y="-173" type="curve" smooth="yes"/>
    </contour>
  </outline>
</glyph>
<glyph name="radical" format="1">
  <advance width="780"/>
  <unicode hex="221A"/>
  <outline>
    <contour>
      <point x="733" y="860" type="line" name="hr00" smooth="yes"/>
      <point x="748" y="860"/>
      <point x="760" y="848"/>
      <point x="760" y="833" type="curve" smooth="yes"/>
      <point x="760" y="732" type="line" smooth="yes"/>
      <point x="760" y="717"/>
      <point x="748" y="705"/>
      <point x="733" y="705" type="curve" smooth="yes"/>
      <point x="596" y="705" type="line"/>
      <point x="379" y="25" type="line" smooth="yes"/>
      <point x="374" y="11"/>
      <point x="366" y="0"/>
      <point x="346" y="0" type="curve" smooth="yes"/>
      <point x="212" y="0" type="line" smooth="yes"/>
      <point x="192" y="0"/>
      <point x="184" y="11"/>
      <point x="179" y="25" type="curve" smooth="yes"/>
      <point x="17" y="489" type="line" smooth="yes"/>
      <point x="16" y="492"/>
      <point x="16" y="494"/>
      <point x="16" y="496" type="curve" smooth="yes"/>
      <point x="16" y="509"/>
      <point x="27" y="520"/>
      <point x="40" y="520" type="curve" smooth="yes"/>
      <point x="156" y="520" type="line" smooth="yes"/>
      <point x="176" y="520"/>
      <point x="185" y="507"/>
      <point x="189" y="496" type="curve" smooth="yes"/>
      <point x="277" y="245" type="line"/>
      <point x="463" y="836" type="line" smooth="yes"/>
      <point x="467" y="847"/>
      <point x="476" y="860"/>
      <point x="496" y="860" type="curve" smooth="yes"/>
    </contour>
  </outline>
</glyph>
<glyph name="Grave" format="1">
  <advance width="406"/>
  <unicode hex="F6CE"/>
  <outline>
    <contour>
      <point x="254" y="891" type="line" name="hr00" smooth="yes"/>
      <point x="239" y="908"/>
      <point x="232" y="910"/>
      <point x="217" y="910" type="curve" smooth="yes"/>
      <point x="74" y="910" type="line" smooth="yes"/>
      <point x="62" y="910"/>
      <point x="55" y="902"/>
      <point x="55" y="890" type="curve" smooth="yes"/>
      <point x="55" y="885"/>
      <point x="57" y="881"/>
      <point x="60" y="878" type="curve" smooth="yes"/>
      <point x="195" y="767" type="line" smooth="yes"/>
      <point x="206" y="758"/>
      <point x="216" y="750"/>
      <point x="237" y="750" type="curve" smooth="yes"/>
      <point x="335" y="750" type="line" smooth="yes"/>
      <point x="345" y="750"/>
      <point x="351" y="756"/>
      <point x="351" y="766" type="curve" smooth="yes"/>
      <point x="351" y="771"/>
      <point x="349" y="776"/>
      <point x="346" y="779" type="curve" smooth="yes"/>
    </contour>
  </outline>
</glyph>
<glyph name="Hungarumlaut" format="1">
  <advance width="575"/>
  <unicode hex="F6CF"/>
  <outline>
    <contour>
      <point x="60" y="781" type="line" name="hr00" smooth="yes"/>
      <point x="58" y="777"/>
      <point x="55" y="771"/>
      <point x="55" y="766" type="curve" smooth="yes"/>
      <point x="55" y="756"/>
      <point x="61" y="750"/>
      <point x="71" y="750" type="curve" smooth="yes"/>
      <point x="144" y="750" type="line" smooth="yes"/>
      <point x="157" y="750"/>
      <point x="170" y="755"/>
      <point x="178" y="764" type="curve" smooth="yes"/>
      <point x="283" y="878" type="line" smooth="yes"/>
      <point x="286" y="881"/>
      <point x="289" y="886"/>
      <point x="289" y="891" type="curve" smooth="yes"/>
      <point x="289" y="903"/>
      <point x="281" y="910"/>
      <point x="269" y="910" type="curve" smooth="yes"/>
      <point x="147" y="910" type="line" smooth="yes"/>
      <point x="126" y="910"/>
      <point x="116" y="904"/>
      <point x="110" y="891" type="curve" smooth="yes"/>
    </contour>
    <contour>
      <point x="291" y="781" type="line" smooth="yes"/>
      <point x="289" y="777"/>
      <point x="286" y="771"/>
      <point x="286" y="766" type="curve" smooth="yes"/>
      <point x="286" y="756"/>
      <point x="292" y="750"/>
      <point x="302" y="750" type="curve" smooth="yes"/>
      <point x="375" y="750" type="line" smooth="yes"/>
      <point x="388" y="750"/>
      <point x="401" y="755"/>
      <point x="409" y="764" type="curve" smooth="yes"/>
      <point x="514" y="878" type="line" smooth="yes"/>
      <point x="517" y="881"/>
      <point x="520" y="886"/>
      <point x="520" y="891" type="curve" smooth="yes"/>
      <point x="520" y="903"/>
      <point x="512" y="910"/>
      <point x="500" y="910" type="curve" smooth="yes"/>
      <point x="378" y="910" type="line" smooth="yes"/>
      <point x="357" y="910"/>
      <point x="347" y="904"/>
      <point x="341" y="891" type="curve" smooth="yes"/>
    </contour>
  </outline>
</glyph>
<glyph name="Macron" format="1">
  <advance width="483"/>
  <unicode hex="F6D0"/>
  <outline>
    <contour>
      <point x="401" y="750" type="line" name="hr00" smooth="yes"/>
      <point x="416" y="750"/>
      <point x="428" y="762"/>
      <point x="428" y="777" type="curve" smooth="yes"/>
      <point x="428" y="863" type="line" smooth="yes"/>
      <point x="428" y="878"/>
      <point x="416" y="890"/>
      <point x="401" y="890" type="curve" smooth="yes"/>
      <point x="82" y="890" type="line" smooth="yes"/>
      <point x="67" y="890"/>
      <point x="55" y="878"/>
      <point x="55" y="863" type="curve" smooth="yes"/>
      <point x="55" y="777" type="line" smooth="yes"/>
      <point x="55" y="762"/>
      <point x="67" y="750"/>
      <point x="82" y="750" type="curve" smooth="yes"/>
    </contour>
  </outline>
</glyph>
<glyph name="fi" format="1">
  <advance width="715"/>
  <unicode hex="FB01"/>
  <outline>
    <contour>
      <point x="657" y="493" type="line" name="hr00" smooth="yes"/>
      <point x="657" y="508"/>
      <point x="645" y="520"/>
      <point x="630" y="520" type="curve" smooth="yes"/>
      <point x="297" y="520" type="line"/>
      <point x="297" y="542" type="line" smooth="yes"/>
      <point x="297" y="567"/>
      <point x="308" y="585"/>
      <point x="340" y="585" type="curve" smooth="yes"/>
      <point x="630" y="585" type="line" smooth="yes"/>
      <point x="645" y="585"/>
      <point x="657" y="597"/>
      <point x="657" y="612" type="curve" smooth="yes"/>
      <point x="657" y="713" type="line" smooth="yes"/>
      <point x="657" y="728"/>
      <point x="645" y="740"/>
      <point x="630" y="740" type="curve" smooth="yes"/>
      <point x="335" y="740" type="line" smooth="yes"/>
      <point x="210" y="740"/>
      <point x="117" y="670"/>
      <point x="117" y="547" type="curve" smooth="yes"/>
      <point x="117" y="520" type="line"/>
      <point x="48" y="520" type="line" smooth="yes"/>
      <point x="33" y="520"/>
      <point x="21" y="508"/>
      <point x="21" y="493" type="curve" smooth="yes"/>
      <point x="21" y="392" type="line" smooth="yes"/>
      <point x="21" y="377"/>
      <point x="33" y="365"/>
      <point x="48" y="365" type="curve" smooth="yes"/>
      <point x="117" y="365" type="line"/>
      <point x="117" y="27" type="line" smooth="yes"/>
      <point x="117" y="12"/>
      <point x="129" y="0"/>
      <point x="144" y="0" type="curve" smooth="yes"/>
      <point x="270" y="0" type="line" smooth="yes"/>
      <point x="285" y="0"/>
      <point x="297" y="12"/>
      <point x="297" y="27" type="curve" smooth="yes"/>
      <point x="297" y="365" type="line"/>
      <point x="477" y="365" type="line"/>
      <point x="477" y="27" type="line" smooth="yes"/>
      <point x="477" y="12"/>
      <point x="489" y="0"/>
      <point x="504" y="0" type="curve" smooth="yes"/>
      <point x="630" y="0" type="line" smooth="yes"/>
      <point x="645" y="0"/>
      <point x="657" y="12"/>
      <point x="657" y="27" type="curve" smooth="yes"/>
    </contour>
  </outline>
</glyph>
<glyph name="asciitilde.cap" format="1">
  <advance width="560"/>
  <outline>
    <contour>
      <point x="171" y="449" type="curve" smooth="yes"/>
      <point x="103" y="449"/>
      <point x="61" y="413"/>
      <point x="61" y="369" type="curve" smooth="yes"/>
      <point x="61" y="296" type="line" smooth="yes"/>
      <point x="61" y="271"/>
      <point x="64" y="259"/>
      <point x="83" y="259" type="curve"/>
      <point x="92" y="260"/>
      <point x="98" y="264"/>
      <point x="103" y="268" type="curve" smooth="yes"/>
      <point x="113" y="277"/>
      <point x="139" y="294"/>
      <point x="170" y="294" type="curve" smooth="yes"/>
      <point x="263" y="294"/>
      <point x="292" y="252"/>
      <point x="391" y="252" type="curve" name="hr01" smooth="yes"/>
      <point x="459" y="252"/>
      <point x="501" y="288"/>
      <point x="501" y="332" type="curve" smooth="yes"/>
      <point x="501" y="405" type="line" smooth="yes"/>
      <point x="501" y="430"/>
      <point x="498" y="442"/>
      <point x="479" y="442" type="curve"/>
      <point x="470" y="441"/>
      <point x="464" y="437"/>
      <point x="459" y="433" type="curve" smooth="yes"/>
      <point x="449" y="424"/>
      <point x="423" y="407"/>
      <point x="392" y="407" type="curve" smooth="yes"/>
      <point x="299" y="407"/>
      <point x="270" y="449"/>
    </contour>
  </outline>
</glyph>
<glyph name="endash.cap" format="1">
  <advance width="581"/>
  <outline>
    <contour>
      <point x="493" y="273" type="line" name="hr00" smooth="yes"/>
      <point x="508" y="273"/>
      <point x="520" y="285"/>
      <point x="520" y="300" type="curve" smooth="yes"/>
      <point x="520" y="401" type="line" smooth="yes"/>
      <point x="520" y="416"/>
      <point x="508" y="428"/>
      <point x="493" y="428" type="curve" smooth="yes"/>
      <point x="88" y="428" type="line" smooth="yes"/>
      <point x="73" y="428"/>
      <point x="61" y="416"/>
      <point x="61" y="401" type="curve" smooth="yes"/>
      <point x="61" y="300" type="line" smooth="yes"/>
      <point x="61" y="285"/>
      <point x="73" y="273"/>
      <point x="88" y="273" type="curve" smooth="yes"/>
    </contour>
  </outline>
</glyph>
<glyph name="f_f_l" format="1">
  <advance width="1099"/>
  <outline>
    <contour>
      <point x="1041" y="713" type="line" name="hr00"/>
      <point x="1041" y="728"/>
      <point x="1029" y="740"/>
      <point x="1014" y="740" type="curve"/>
      <point x="888" y="740" type="line"/>
      <point x="873" y="740"/>
      <point x="861" y="728"/>
      <point x="861" y="713" type="curve"/>
      <point x="861" y="520" type="line"/>
      <point x="669" y="520" type="line"/>
      <point x="669" y="542" type="line"/>
      <point x="669" y="567"/>
      <point x="680" y="585"/>
      <point x="712" y="585" type="curve"/>
      <point x="802" y="585" type="line"/>
      <point x="817" y="585"/>
      <point x="829" y="597"/>
      <point x="829" y="612" type="curve"/>
      <point x="829" y="713" type="line"/>
      <point x="829" y="728"/>
      <point x="817" y="740"/>
      <point x="802" y="740" type="curve"/>
      <point x="707" y="740" type="line"/>
      <point x="582" y="740"/>
      <point x="489" y="670"/>
      <point x="489" y="547" type="curve"/>
      <point x="489" y="520" type="line"/>
      <point x="297" y="520" type="line"/>
      <point x="297" y="542" type="line"/>
      <point x="297" y="567"/>
      <point x="308" y="585"/>
      <point x="340" y="585" type="curve"/>
      <point x="430" y="585" type="line"/>
      <point x="445" y="585"/>
      <point x="457" y="597"/>
      <point x="457" y="612" type="curve"/>
      <point x="457" y="713" type="line"/>
      <point x="457" y="728"/>
      <point x="445" y="740"/>
      <point x="430" y="740" type="curve"/>
      <point x="335" y="740" type="line"/>
      <point x="210" y="740"/>
      <point x="117" y="670"/>
      <point x="117" y="547" type="curve"/>
      <point x="117" y="520" type="line"/>
      <point x="48" y="520" type="line"/>
      <point x="33" y="520"/>
      <point x="21" y="508"/>
      <point x="21" y="493" type="curve"/>
      <point x="21" y="392" type="line"/>
      <point x="21" y="377"/>
      <point x="33" y="365"/>
      <point x="48" y="365" type="curve"/>
      <point x="117" y="365" type="line"/>
      <point x="117" y="27" type="line"/>
      <point x="117" y="12"/>
      <point x="129" y="0"/>
      <point x="144" y="0" type="curve"/>
      <point x="270" y="0" type="line"/>
      <point x="285" y="0"/>
      <point x="297" y="12"/>
      <point x="297" y="27" type="curve"/>
      <point x="297" y="365" type="line"/>
      <point x="489" y="365" type="line"/>
      <point x="489" y="27" type="line"/>
      <point x="489" y="12"/>
      <point x="501" y="0"/>
      <point x="516" y="0" type="curve"/>
      <point x="642" y="0" type="line"/>
      <point x="657" y="0"/>
      <point x="669" y="12"/>
      <point x="669" y="27" type="curve"/>
      <point x="669" y="365" type="line"/>
      <point x="861" y="365" type="line"/>
      <point x="861" y="27" type="line"/>
      <point x="861" y="12"/>
      <point x="873" y="0"/>
      <point x="888" y="0" type="curve"/>
      <point x="1014" y="0" type="line"/>
      <point x="1029" y="0"/>
      <point x="1041" y="12"/>
      <point x="1041" y="27" type="curve"/>
    </contour>
  </outline>
</glyph>
<glyph name="guillemotleft.cap" format="1">
  <advance width="643"/>
  <outline>
    <contour>
      <point x="323" y="317" type="line" name="hr00" smooth="yes"/>
      <point x="323" y="305"/>
      <point x="329" y="296"/>
      <point x="337" y="289" type="curve" smooth="yes"/>
      <point x="544" y="88" type="line" smooth="yes"/>
      <point x="550" y="83"/>
      <point x="557" y="83"/>
      <point x="558" y="83" type="curve" smooth="yes"/>
      <point x="570" y="83"/>
      <point x="580" y="93"/>
      <point x="580" y="105" type="curve" smooth="yes"/>
      <point x="580" y="218" type="line" smooth="yes"/>
      <point x="580" y="241"/>
      <point x="575" y="250"/>
      <point x="562" y="263" type="curve" smooth="yes"/>
      <point x="472" y="350" type="line"/>
      <point x="562" y="437" type="line" smooth="yes"/>
      <point x="575" y="450"/>
      <point x="580" y="459"/>
      <point x="580" y="482" type="curve" smooth="yes"/>
      <point x="580" y="595" type="line" smooth="yes"/>
      <point x="580" y="607"/>
      <point x="570" y="617"/>
      <point x="558" y="617" type="curve" smooth="yes"/>
      <point x="557" y="617"/>
      <point x="550" y="617"/>
      <point x="544" y="612" type="curve" smooth="yes"/>
      <point x="337" y="411" type="line" smooth="yes"/>
      <point x="329" y="404"/>
      <point x="323" y="395"/>
      <point x="323" y="383" type="curve" smooth="yes"/>
    </contour>
    <contour>
      <point x="43" y="317" type="line" smooth="yes"/>
      <point x="43" y="305"/>
      <point x="49" y="296"/>
      <point x="57" y="289" type="curve" smooth="yes"/>
      <point x="264" y="88" type="line" smooth="yes"/>
      <point x="270" y="83"/>
      <point x="277" y="83"/>
      <point x="278" y="83" type="curve" smooth="yes"/>
      <point x="290" y="83"/>
      <point x="300" y="93"/>
      <point x="300" y="105" type="curve" smooth="yes"/>
      <point x="300" y="218" type="line" smooth="yes"/>
      <point x="300" y="241"/>
      <point x="295" y="250"/>
      <point x="282" y="263" type="curve" smooth="yes"/>
      <point x="192" y="350" type="line"/>
      <point x="282" y="437" type="line" smooth="yes"/>
      <point x="295" y="450"/>
      <point x="300" y="459"/>
      <point x="300" y="482" type="curve" smooth="yes"/>
      <point x="300" y="595" type="line" smooth="yes"/>
      <point x="300" y="607"/>
      <point x="290" y="617"/>
      <point x="278" y="617" type="curve" smooth="yes"/>
      <point x="277" y="617"/>
      <point x="270" y="617"/>
      <point x="264" y="612" type="curve" smooth="yes"/>
      <point x="57" y="411" type="line" smooth="yes"/>
      <point x="49" y="404"/>
      <point x="43" y="395"/>
      <point x="43" y="383" type="curve" smooth="yes"/>
    </contour>
  </outline>
</glyph>
<glyph name="guilsinglright.cap" format="1">
  <advance width="363"/>
  <outline>
    <contour>
      <point x="320" y="383" type="line" name="hr00" smooth="yes"/>
      <point x="320" y="395"/>
      <point x="314" y="404"/>
      <point x="306" y="411" type="curve" smooth="yes"/>
      <point x="99" y="612" type="line" smooth="yes"/>
      <point x="93" y="617"/>
      <point x="86" y="617"/>
      <point x="85" y="617" type="curve" smooth="yes"/>
      <point x="73" y="617"/>
      <point x="63" y="607"/>
      <point x="63" y="595" type="curve" smooth="yes"/>
      <point x="63" y="482" type="line" smooth="yes"/>
      <point x="63" y="459"/>
      <point x="68" y="450"/>
      <point x="81" y="437" type="curve" smooth="yes"/>
      <point x="171" y="350" type="line"/>
      <point x="81" y="263" type="line" smooth="yes"/>
      <point x="68" y="250"/>
      <point x="63" y="241"/>
      <point x="63" y="218" type="curve" smooth="yes"/>
      <point x="63" y="105" type="line" smooth="yes"/>
      <point x="63" y="93"/>
      <point x="73" y="83"/>
      <point x="85" y="83" type="curve" smooth="yes"/>
      <point x="86" y="83"/>
      <point x="93" y="83"/>
      <point x="99" y="88" type="curve" smooth="yes"/>
      <point x="306" y="289" type="line" smooth="yes"/>
      <point x="314" y="296"/>
      <point x="320" y="305"/>
      <point x="320" y="317" type="curve" smooth="yes"/>
    </contour>
  </outline>
</glyph>
<glyph name="hyphen.cap" format="1">
  <advance width="491"/>
  <outline>
    <contour>
      <point x="403" y="273" type="line" name="hr00" smooth="yes"/>
      <point x="418" y="273"/>
      <point x="430" y="285"/>
      <point x="430" y="300" type="curve" smooth="yes"/>
      <point x="430" y="401" type="line" smooth="yes"/>
      <point x="430" y="416"/>
      <point x="418" y="428"/>
      <point x="403" y="428" type="curve" smooth="yes"/>
      <point x="88" y="428" type="line" smooth="yes"/>
      <point x="73" y="428"/>
      <point x="61" y="416"/>
      <point x="61" y="401" type="curve" smooth="yes"/>
      <point x="61" y="300" type="line" smooth="yes"/>
      <point x="61" y="285"/>
      <point x="73" y="273"/>
      <point x="88" y="273" type="curve" smooth="yes"/>
    </contour>
  </outline>
</glyph>
<glyph name="nine.otlf" format="1">
  <advance width="660"/>
  <outline>
    <contour>
      <point x="36" y="461" type="curve" name="hr00" smooth="yes"/>
      <point x="36" y="321"/>
      <point x="151" y="233"/>
      <point x="282" y="215" type="curve"/>
      <point x="154" y="35" type="line" smooth="yes"/>
      <point x="152" y="32"/>
      <point x="149" y="28"/>
      <point x="149" y="22" type="curve" smooth="yes"/>
      <point x="149" y="10"/>
      <point x="157" y="0"/>
      <point x="169" y="0" type="curve" smooth="yes"/>
      <point x="328" y="0" type="line" smooth="yes"/>
      <point x="346" y="0"/>
      <point x="353" y="13"/>
      <point x="359" y="20" type="curve"/>
      <point x="549" y="283" type="line" smooth="yes"/>
      <point x="583" y="332"/>
      <point x="622" y="383"/>
      <point x="622" y="461" type="curve" smooth="yes"/>
      <point x="622" y="617"/>
      <point x="479" y="710"/>
      <point x="329" y="710" type="curve" smooth="yes"/>
      <point x="179" y="710"/>
      <point x="36" y="617"/>
    </contour>
    <contour>
      <point x="437" y="461" type="curve" smooth="yes"/>
      <point x="437" y="408"/>
      <point x="385" y="372"/>
      <point x="329" y="372" type="curve" smooth="yes"/>
      <point x="273" y="372"/>
      <point x="221" y="408"/>
      <point x="221" y="461" type="curve" smooth="yes"/>
      <point x="221" y="514"/>
      <point x="273" y="550"/>
      <point x="329" y="550" type="curve" smooth="yes"/>
      <point x="385" y="550"/>
      <point x="437" y="514"/>
    </contour>
  </outline>
</glyph>
<glyph name="seven.otlf" format="1">
  <advance width="660"/>
  <outline>
    <contour>
      <point x="171" y="24" type="curve" name="hr00" smooth="yes"/>
      <point x="171" y="11"/>
      <point x="182" y="0"/>
      <point x="195" y="0" type="curve" smooth="yes"/>
      <point x="335" y="0" type="line" smooth="yes"/>
      <point x="351" y="0"/>
      <point x="359" y="12"/>
      <point x="364" y="24" type="curve" smooth="yes"/>
      <point x="581" y="529" type="line" smooth="yes"/>
      <point x="591" y="551"/>
      <point x="597" y="568"/>
      <point x="597" y="580" type="curve" smooth="yes"/>
      <point x="597" y="673" type="line" smooth="yes"/>
      <point x="597" y="688"/>
      <point x="585" y="700"/>
      <point x="570" y="700" type="curve" smooth="yes"/>
      <point x="92" y="700" type="line" smooth="yes"/>
      <point x="77" y="700"/>
      <point x="65" y="688"/>
      <point x="65" y="673" type="curve" smooth="yes"/>
      <point x="65" y="567" type="line" smooth="yes"/>
      <point x="65" y="552"/>
      <point x="77" y="540"/>
      <point x="92" y="540" type="curve" smooth="yes"/>
      <point x="390" y="540" type="line"/>
      <point x="174" y="36" type="line" smooth="yes"/>
      <point x="172" y="31"/>
      <point x="171" y="26"/>
    </contour>
  </outline>
</glyph>
<glyph name="two.otlf" format="1">
  <advance width="660"/>
  <outline>
    <contour>
      <point x="603" y="475" type="curve" name="hr00" smooth="yes"/>
      <point x="603" y="597"/>
      <point x="510" y="710"/>
      <point x="333" y="710" type="curve" smooth="yes"/>
      <point x="146" y="710"/>
      <point x="59" y="586"/>
      <point x="56" y="475" type="curve" smooth="yes"/>
      <point x="56" y="463"/>
      <point x="66" y="453"/>
      <point x="78" y="453" type="curve" smooth="yes"/>
      <point x="201" y="453" type="line" smooth="yes"/>
      <point x="219" y="453"/>
      <point x="234" y="457"/>
      <point x="241" y="476" type="curve" smooth="yes"/>
      <point x="247" y="492"/>
      <point x="259" y="550"/>
      <point x="334" y="550" type="curve" smooth="yes"/>
      <point x="409" y="550"/>
      <point x="418" y="494"/>
      <point x="418" y="475" type="curve" smooth="yes"/>
      <point x="418" y="448"/>
      <point x="411" y="421"/>
      <point x="365" y="386" type="curve"/>
      <point x="66" y="172" type="line" smooth="yes"/>
      <point x="45" y="157"/>
      <point x="37" y="134"/>
      <point x="37" y="113" type="curve" smooth="yes"/>
      <point x="37" y="27" type="line" smooth="yes"/>
      <point x="37" y="12"/>
      <point x="49" y="0"/>
      <point x="64" y="0" type="curve" smooth="yes"/>
      <point x="592" y="0" type="line" smooth="yes"/>
      <point x="607" y="0"/>
      <point x="619" y="12"/>
      <point x="619" y="27" type="curve" smooth="yes"/>
      <point x="619" y="133" type="line" smooth="yes"/>
      <point x="619" y="148"/>
      <point x="607" y="160"/>
      <point x="592" y="160" type="curve" smooth="yes"/>
      <point x="341" y="160" type="line"/>
      <point x="481" y="266" type="line"/>
      <point x="573" y="334"/>
      <point x="603" y="397"/>
    </contour>
  </outline>
</glyph>
